<?xml version="1.0" standalone="no"?>
<!DOCTYPE svg PUBLIC "-//W3C//DTD SVG 1.1//EN" "http://www.w3.org/Graphics/SVG/1.1/DTD/svg11.dtd" >
<svg xmlns="http://www.w3.org/2000/svg">
<metadata></metadata>
<defs>
<font id="optimaregular" horiz-adv-x="1136" >
<font-face units-per-em="2048" ascent="1638" descent="-410" />
<missing-glyph horiz-adv-x="559" />
<glyph horiz-adv-x="0" />
<glyph unicode="&#xd;" horiz-adv-x="0" />
<glyph unicode=" "  horiz-adv-x="559" />
<glyph unicode="&#x09;" horiz-adv-x="559" />
<glyph unicode="&#xa0;" horiz-adv-x="559" />
<glyph unicode="!" horiz-adv-x="672" d="M224 112q11 63 46 95t81 32q52 0 90.5 -36t38.5 -91q0 -62 -38 -97t-90 -35t-90 35t-38 97zM256 1280q0 74 29 115t69 41q46 0 78 -51.5t32 -152.5l-80 -880h-48z" />
<glyph unicode="&#x22;" horiz-adv-x="672" d="M95 844q0 13 1 20v464q0 42 23 68t52 26t49 -26.5t20 -83.5v-480q0 -24 -25.5 -43t-56.5 -19q-63 0 -63 74zM415 872q0 16 1 24v416q0 47 25.5 77.5t56.5 30.5q24 0 41 -19.5t21 -56.5v-480q0 -40 -23.5 -66t-54.5 -26q-29 0 -48 25t-19 75z" />
<glyph unicode="#" d="M48 432v112h240l48 272h-224v112h240l64 416h128l-64 -416h256l64 416h128l-64 -416h192v-112h-208l-48 -272h208v-112h-224l-64 -432h-128l64 432h-256l-64 -432h-128l64 432h-224zM416 544h256l48 272h-256z" />
<glyph unicode="$" d="M144 96q11 16 24.5 46.5t24 64t15.5 49.5h16q128 -192 320 -192v560q-176 39 -268 141.5t-92 230.5q0 86 42.5 165.5t123 136.5t194.5 78v160q24 -12 46 -12t34 12v-160q70 0 167.5 -26t152.5 -70q-32 -48 -64 -176h-16q-26 65 -87.5 117t-152.5 75v-512 q140 -55 207.5 -91t114 -100t46.5 -161q0 -6 0.5 -11.5t0.5 -14.5q0 -100 -39.5 -180.5t-100 -134t-123.5 -80.5t-106 -27v-224q-15 7 -31 7q-8 0 -17 -1.5t-19 -3.5t-13 -2v224q-41 -4 -87 -4q-105 0 -178.5 27.5t-134.5 88.5zM352 1056q13 -88 62 -152.5t130 -87.5v464 q-83 -24 -137.5 -88t-54.5 -136zM624 80q118 32 163 104.5t45 151.5q0 80 -59.5 149t-148.5 107v-512z" />
<glyph unicode="%" horiz-adv-x="1808" d="M96 1056q0 100 49 172t126.5 110t160.5 38q118 0 189.5 -53.5t101 -130t29.5 -152.5q0 -84 -38 -165.5t-110.5 -134t-171.5 -52.5q-167 0 -251.5 109.5t-84.5 258.5zM240 1040q0 -129 51 -208.5t125 -79.5q56 0 99.5 44t66.5 117t23 147q0 66 -19 124t-58 93t-96 35 q-73 0 -116.5 -42t-59.5 -104t-16 -126zM448 -64l768 1488h112l-768 -1488q-24 12 -50 12t-62 -12zM1056 320q0 105 50.5 183t132.5 118.5t172 40.5q85 0 156.5 -36.5t116 -113.5t44.5 -192q-10 -165 -108 -251.5t-226 -86.5q-12 0 -34 2q-134 12 -219 103t-85 233z M1216 320q0 -109 43.5 -193t132.5 -95q75 0 125 103.5t50 228.5q0 105 -38.5 175t-116.5 70q-13 0 -20 -1q-60 0 -99 -45.5t-58 -112.5t-19 -130z" />
<glyph unicode="&#x26;" horiz-adv-x="1472" d="M141 318q0 84 36 153t87.5 118t105.5 84.5t126 78.5q-69 98 -99 180t-30 153q0 73 30 132t79 98t104 58t108 19q140 -10 211 -70.5t71 -150.5q0 -94 -73 -197.5t-209 -189.5l352 -432q67 89 126 190t114 210l80 -80q0 -30 -95 -166t-177 -218l256 -288h-240l-144 160 q-20 -38 -77 -82.5t-142 -77t-181 -32.5q-12 -1 -35 -1q-187 0 -284 96.5t-97 208.5q-3 24 -3 46zM307 370q0 -40 13 -82q28 -75 72.5 -122.5t101 -69.5t116.5 -22q83 0 165.5 37t136.5 97l-368 480q-100 -66 -168.5 -140t-68.5 -178zM527 1134q0 -69 29 -145t84 -141 q51 21 99 72t79 116.5t31 122.5q0 121 -129 153q-27 5 -45 5q-71 0 -109.5 -51t-38.5 -132z" />
<glyph unicode="'" horiz-adv-x="560" d="M96 848l160 496q15 41 40.5 60.5t54.5 19.5q32 0 53.5 -21t21.5 -57q0 -40 -26 -82l-256 -432z" />
<glyph unicode="(" horiz-adv-x="560" d="M107 657q0 186 49.5 361.5t127 308t164.5 209.5l48 -48q-139 -182 -189.5 -396t-50.5 -420q6 -206 37.5 -359.5t70 -244.5t79 -150.5t53.5 -77.5l-48 -64q-123 144 -198 291t-109 296.5t-34 293.5z" />
<glyph unicode=")" horiz-adv-x="560" d="M64 -160q107 153 158.5 283.5t66.5 249t15 267.5q0 189 -35 359t-91 296.5t-114 192.5l48 48q128 -121 203 -284t104 -330t29 -330q0 -160 -52 -322.5t-131 -291.5t-153 -186z" />
<glyph unicode="*" horiz-adv-x="896" d="M96 912l288 128l-288 128q4 8 29.5 46t34.5 66l256 -176l-32 304q24 -12 64 -12t64 12l-32 -320l240 192q32 -64 80 -112l-288 -128l272 -112q-32 -96 -48 -128l-256 176l32 -304h-128l32 304l-240 -176z" />
<glyph unicode="+" horiz-adv-x="1232" d="M96 464v128h464v464h128v-464h448v-128h-448v-464h-128v464h-464z" />
<glyph unicode="," horiz-adv-x="560" d="M80 -336l160 496q32 94 94 94q34 0 60.5 -29t26.5 -68q0 -33 -21 -61l-272 -448z" />
<glyph unicode="-" horiz-adv-x="672" d="M80 400v144h512v-144h-512z" />
<glyph unicode="." horiz-adv-x="560" d="M144 96q3 50 20.5 83t45 48.5t56.5 15.5q33 0 64 -16.5t50.5 -46t19.5 -68.5q-6 -62 -42.5 -95t-85.5 -33q-48 0 -85 30t-43 82z" />
<glyph unicode="/" horiz-adv-x="560" d="M-80 -208l576 1744q24 -12 64 -12t64 12l-576 -1744q-7 0 -17 1t-32 3.5t-32 2.5q-25 0 -47 -7z" />
<glyph unicode="0" d="M80 656q5 63 16.5 187t53 242t145.5 204.5t281 86.5q208 0 311.5 -135.5t128 -288.5t24.5 -296q0 -123 -36 -275t-146.5 -274.5t-313.5 -122.5q-126 0 -216.5 57t-144.5 153.5t-78.5 215t-24.5 246.5zM256 624q0 -204 67.5 -382t236.5 -178q102 0 165 60t92.5 153 t38 193.5t8.5 217.5q0 138 -19.5 249.5t-57.5 190.5t-96 123.5t-131 44.5q-97 -6 -159 -62.5t-92.5 -145.5t-41.5 -204t-11 -260z" />
<glyph unicode="1" d="M208 1184q29 15 152.5 73t174 83.5t89.5 51.5l48 -16v-1392q-48 12 -82 12t-94 -12v1248l-224 -128q-3 3 -24 37t-40 43z" />
<glyph unicode="2" d="M80 0v32q119 110 244 242t221 246t127 168q24 41 42.5 93t28.5 104.5t10 107.5q0 83 -25.5 146.5t-84 102t-147.5 38.5q-88 0 -149 -61t-75 -131l-32 -16l-64 96q69 116 155.5 162t212.5 46q103 0 194 -41t148.5 -127.5t57.5 -215.5q0 -95 -35.5 -187t-124.5 -181 l-464 -480l640 16q-12 -36 -12 -74t12 -86h-880z" />
<glyph unicode="3" d="M112 48l32 112l32 16q38 -60 106 -94t148 -34q127 0 221 82.5t101 237.5q1 10 1 29q0 93 -37.5 153t-101 87t-141.5 27q-41 0 -89 -8q12 24 12 48t-12 48q24 -4 58 -4q103 0 178.5 64t83.5 228q0 75 -30 130.5t-81.5 85t-106.5 29.5q-64 0 -122 -38t-92 -111l-32 -16 l-48 128q24 18 63 46t97.5 47t143.5 19q384 0 384 -304q0 -55 -15 -106.5t-48 -98.5t-80.5 -80t-112.5 -51q171 -23 245.5 -109t74.5 -227q-8 -123 -64.5 -217t-170.5 -146.5t-293 -52.5q-81 0 -171 18.5t-133 61.5z" />
<glyph unicode="4" d="M32 384v48l656 928h144v-848l192 16q-12 -36 -12 -80t12 -80l-192 16v-384h-176v384h-624zM208 512h448v656z" />
<glyph unicode="5" d="M96 48l32 144h16q43 -67 120 -104.5t160 -37.5q130 0 221 87.5t91 255.5v23q-6 112 -44.5 182.5t-98 103t-132.5 32.5q-107 0 -205 -62l-32 16v672h672q0 -10 -1.5 -28t-3.5 -44t-2 -41q0 -34 7 -63q-128 32 -256 32h-320v-432q81 48 202 48q100 0 192.5 -39.5 t156 -129.5t73.5 -231q0 -133 -71.5 -238t-193 -164t-265.5 -59q-163 0 -318 77z" />
<glyph unicode="6" d="M111 533q0 29 1 43q6 202 55 353t134 249.5t191.5 145.5t225.5 47q54 0 114 -11l16 -80q-56 14 -103 14q-91 0 -167 -44.5t-132.5 -129.5t-88 -197.5t-37.5 -250.5q51 51 83 77t91 46.5t146 20.5q108 0 200 -44t146.5 -132.5t54.5 -208.5q0 -20 -1 -31 q-8 -114 -58.5 -208t-148 -151.5t-239.5 -57.5q-22 0 -34 1q-125 0 -227.5 61t-162 185t-59.5 303zM304 416q0 -58 18 -122.5t55 -122t90.5 -90.5t124.5 -33q130 11 193 124t63 244q0 92 -36.5 165.5t-95.5 114t-124 40.5q-66 0 -129.5 -37.5t-107.5 -111t-51 -171.5z" />
<glyph unicode="7" d="M144 0l720 1200l-720 -32q12 48 12 96t-12 96h896v-80q-101 -161 -233.5 -385.5t-248.5 -430.5t-254 -464h-160z" />
<glyph unicode="8" d="M96 369q0 65 21.5 131.5t62 122t97 94t123.5 51.5q-104 22 -165.5 104t-61.5 182q0 85 44 158t135 118.5t224 45.5q123 0 211 -44.5t132 -117t44 -153.5q0 -102 -64.5 -184.5t-178.5 -108.5q152 -14 233.5 -114.5t81.5 -235.5q0 -110 -54 -209t-162.5 -162t-258.5 -63 q-159 4 -262.5 58.5t-152.5 140.5t-49 186zM288 384q8 -105 39.5 -176.5t92.5 -107.5t156 -36q131 0 193.5 103t62.5 233q0 84 -23 155t-83.5 118t-165.5 47q-96 0 -157.5 -54t-88 -131t-26.5 -151zM352 1040q0 -109 56.5 -174.5t151.5 -65.5q8 -1 25 -1q92 0 144.5 72.5 t52.5 169.5q0 104 -57.5 179.5t-164.5 75.5q-101 0 -154.5 -75.5t-53.5 -180.5z" />
<glyph unicode="9" d="M96 912q0 119 39 219t142.5 164.5t282.5 64.5q129 0 215.5 -55.5t134.5 -141.5t65 -171.5t17 -159.5v-36q0 -276 -89 -458.5t-229 -268t-291 -85.5q-69 0 -127 16l-64 128h48q78 -69 164 -69q77 0 149.5 54t128.5 145t87.5 204t31.5 227q0 10 -0.5 16.5t-0.5 14.5 q-88 -176 -304 -176q-178 0 -289 92.5t-111 275.5zM288 976q0 -143 54.5 -239.5t185.5 -96.5q133 11 200 99.5t67 212.5q0 85 -32 165.5t-89 129.5t-130 49q-87 0 -145 -56t-84.5 -130.5t-26.5 -133.5z" />
<glyph unicode=":" horiz-adv-x="560" d="M160 112q6 62 43 94t87 32t88 -34t38 -92q-6 -62 -43 -97t-85 -35t-85 34.5t-43 97.5zM160 832q6 58 41.5 89t83.5 31q51 0 91 -32.5t40 -87.5q0 -62 -38 -97t-90 -35t-90 35t-38 97z" />
<glyph unicode=";" horiz-adv-x="560" d="M80 -320l160 480q24 85 87 85q37 0 63.5 -27.5t26.5 -68.5q0 -42 -33 -85l-256 -416zM192 816q6 64 41 96t84 32q51 0 91 -31t40 -81q0 -68 -37.5 -104t-90.5 -36q-51 0 -89.5 33.5t-38.5 90.5z" />
<glyph unicode="&#x3c;" horiz-adv-x="1232" d="M96 464v128l1056 464v-144l-864 -384l848 -400v-144z" />
<glyph unicode="=" horiz-adv-x="1232" d="M96 256v144h1040v-144h-1040zM96 640v144h1040v-144h-1040z" />
<glyph unicode="&#x3e;" horiz-adv-x="1232" d="M96 -16v144l864 400l-864 384v144l1056 -480v-112z" />
<glyph unicode="?" horiz-adv-x="784" d="M144 1360q114 70 242 70q81 0 145.5 -31.5t102.5 -97.5t38 -165q0 -65 -36 -137t-81.5 -125.5t-74.5 -73.5q-79 -68 -117 -138t-38 -126q0 -48 26 -76.5t71 -28.5q36 0 74 17l-16 -80q-33 -10 -69 -10q-65 0 -118.5 32.5t-85 87.5t-31.5 114q0 97 51 164.5t169.5 199.5 t131.5 196q0 78 -48 134t-125 56q-87 0 -179 -78zM240 112q6 59 47.5 92.5t93.5 33.5q51 0 88 -32t43 -94q0 -64 -37.5 -98t-92.5 -34q-36 0 -68.5 15t-53 45t-20.5 72z" />
<glyph unicode="@" horiz-adv-x="1632" d="M95 647q0 6 0.5 11.5t0.5 13.5q0 108 38.5 237t123.5 245.5t233.5 193t356.5 76.5q197 0 333 -63t214.5 -161t109.5 -198.5t31 -185.5q0 -69 -33.5 -162.5t-94 -180t-147.5 -144t-189 -57.5q-76 0 -119.5 34.5t-72.5 93.5q-82 -119 -217 -119q-73 0 -139.5 37.5 t-108 105.5t-41.5 150q0 42 10 82q30 128 100.5 218.5t159 135.5t171.5 45q66 0 113.5 -29t63.5 -82l32 96h192l-144 -544q-7 -27 -7 -50q0 -66 56 -66q52 0 120.5 58.5t117.5 162.5t49 231q0 79 -38.5 163.5t-113 157.5t-178 116t-230.5 43q-148 0 -292.5 -76.5 t-238 -216.5t-93.5 -315q0 -9 -0.5 -14t-0.5 -12q0 -139 57 -250.5t151.5 -187t204 -115t212.5 -45.5q12 -1 34 -1q172 0 306 89.5t188 199.5h144q-95 -175 -255.5 -288t-407.5 -113q-27 0 -41 1q-149 6 -280 63t-231.5 154t-155 216t-54.5 246zM566 519q0 -72 26 -98 t80 -37q61 0 124.5 72t106.5 176t43 189q0 59 -24 96t-74 43q-36 0 -83.5 -29.5t-96 -93t-76.5 -149.5q-26 -105 -26 -169z" />
<glyph unicode="A" horiz-adv-x="1360" d="M16 0l640 1424h48l624 -1424q-10 0 -34.5 1.5t-55.5 3.5t-51 2q-45 0 -83 -7l-224 560h-496l-208 -560q-22 7 -52 7q-13 0 -37.5 -2t-42.5 -3.5t-28 -1.5zM432 656h416l-208 496z" />
<glyph unicode="B" horiz-adv-x="1248" d="M192 0v1392h480q106 0 191 -22.5t139.5 -84.5t54.5 -170q0 -18 -1 -27q0 -78 -39.5 -150t-109 -121t-155.5 -65q169 -28 260.5 -99.5t91.5 -236.5q0 -211 -146 -313.5t-350 -102.5h-416zM368 80h192q105 0 186 44t123.5 110.5t42.5 133.5q0 134 -55.5 207.5t-172 101 t-316.5 27.5v-624zM368 784h128q179 0 275.5 69.5t108.5 202.5q1 8 1 24q0 76 -44 128.5t-116.5 78t-160.5 25.5h-192v-528z" />
<glyph unicode="C" horiz-adv-x="1360" d="M80 688q0 143 53 275t151 231t238.5 156.5t309.5 57.5q326 0 480 -96l-48 -160h-16q-66 62 -132 99.5t-137 56.5t-143 19q-145 0 -270.5 -74.5t-201.5 -214.5t-76 -326v-24q4 -170 50 -289.5t125 -197t176 -113t203 -35.5q120 0 236 41.5t202 113.5l-16 -128 q-71 -42 -148.5 -71.5t-156 -43.5t-150.5 -14q-145 0 -278 51.5t-235.5 150t-159 234t-56.5 301.5z" />
<glyph unicode="D" horiz-adv-x="1584" d="M192 0v1408h656q220 0 360 -87t202 -236t62 -333q0 -111 -31 -232t-109 -237t-214 -194t-334 -89h-592zM384 96q107 -8 189 -8q179 0 304.5 36.5t207 112t125 197.5t54.5 302q2 44 2 63q0 306 -182 419t-442 113q-83 0 -258 -19v-1216z" />
<glyph unicode="E" horiz-adv-x="1024" d="M176 0v1392h736q-12 -36 -12 -64t12 -64q-100 20 -266 20q-47 0 -141 -2t-137 -2v-496h304l192 16q-12 -24 -12 -58t12 -70l-240 16h-256v-576q52 -7 149 -7q95 0 214.5 7t196.5 16q-12 -36 -12 -70t12 -58h-752z" />
<glyph unicode="F" horiz-adv-x="1024" d="M176 0v1392h720q-12 -36 -12 -72t12 -72q-133 24 -267 36t-277 12v-496h304l208 16q-12 -36 -12 -64t12 -64l-208 16h-304v-704q-36 12 -82 12t-94 -12z" />
<glyph unicode="G" horiz-adv-x="1584" d="M112 688q11 236 95.5 386.5t208.5 227.5t244 103.5t252 34.5q88 0 178 -12.5t178.5 -41t171.5 -74.5l-64 -176q-2 1 -60 51.5t-109 82t-126 53t-169 21.5q-132 0 -262 -58t-222.5 -191t-107.5 -343q-1 -13 -1 -39q0 -144 42 -267.5t121.5 -213t189 -137t240.5 -47.5 q107 0 197 22t139 58v528q48 -12 88 -12t88 12v-592q-68 -34 -246.5 -65t-281.5 -31q-13 0 -20.5 -0.5t-17.5 -0.5q-168 0 -307.5 51t-237.5 147t-149.5 229t-51.5 294z" />
<glyph unicode="H" horiz-adv-x="1584" d="M160 0v1424q36 -12 94 -12t82 12v-592q48 -9 116.5 -14t150 -7.5t171.5 -2.5q140 0 257 6t169 18v592q48 -12 94 -12t82 12v-1424q-36 12 -82 12t-94 -12v704q-40 4 -106.5 8.5t-153 7t-181.5 2.5q-249 0 -423 -18v-704q-48 12 -82 12t-94 -12z" />
<glyph unicode="I" horiz-adv-x="560" d="M192 0v1408q36 -12 88 -12t88 12v-1408q-36 12 -88 12t-88 -12z" />
<glyph unicode="J" horiz-adv-x="560" d="M-16 -208q106 7 158 61t67 139t15 216v1200q36 -12 88 -12t88 12v-1312q0 -99 -53 -183.5t-142.5 -135t-192.5 -50.5q-18 0 -28 1v64z" />
<glyph unicode="K" horiz-adv-x="1248" d="M176 0v1408q36 -12 88 -12t88 12v-656q64 48 208 192l464 464q48 -12 78 -12t66 12l-624 -624l656 -752v-32q-48 12 -106 12t-118 -12l-480 592q-6 6 -38.5 43.5t-53 54t-39.5 16.5q-5 0 -13 -2v-704q-36 12 -82 12t-94 -12z" />
<glyph unicode="L" horiz-adv-x="1024" d="M176 0v1408q36 -12 94 -12t82 12v-1296q52 -7 149 -7q95 0 214.5 7t196.5 16q-7 -22 -7 -47q0 -10 2.5 -32t3.5 -32t1 -17h-736z" />
<glyph unicode="M" horiz-adv-x="1808" d="M80 0l192 1408h64l560 -1072l576 1072h64l160 -1408q-60 12 -104 12t-104 -12l-96 1056l-528 -1024h-32l-512 1008l-96 -1040q-24 12 -66 12t-78 -12z" />
<glyph unicode="N" horiz-adv-x="1584" d="M192 0v1408h96l976 -1072v1072q24 -12 64 -12t64 12v-1408h-80l-992 1104v-1104q-24 12 -58 12t-70 -12z" />
<glyph unicode="O" horiz-adv-x="1696" d="M80 704q0 135 50.5 267t148 237.5t246.5 168.5t339 63q221 -6 371.5 -72.5t234 -171.5t119.5 -225t43 -251v-28q0 -164 -61.5 -298t-171.5 -230.5t-246.5 -146.5t-286.5 -50q-8 0 -15.5 0.5t-18.5 0.5q-129 0 -259.5 40.5t-243 128.5t-181 230t-68.5 337zM288 704 q0 -306 159.5 -481t416.5 -175q114 0 211 43.5t172 129.5t120 208t57 275q1 12 1 35q0 130 -42.5 245t-119 199t-183 130.5t-232.5 46.5q-142 0 -245 -60.5t-167.5 -157.5t-99 -209.5t-48.5 -228.5z" />
<glyph unicode="P" d="M144 0v1408h512q135 0 224 -36.5t132.5 -107.5t43.5 -176q1 -12 1 -34q0 -152 -90.5 -245t-222 -131.5t-261.5 -38.5q-89 0 -147 17v-656q-48 12 -90 12t-102 -12zM336 736h192q100 0 173 47.5t111.5 124t38.5 158.5q0 110 -67 186.5t-194 76.5q-20 0 -30 -1h-224v-592z " />
<glyph unicode="Q" horiz-adv-x="1696" d="M79 688q0 8 0.5 14.5t0.5 17.5q6 170 68 304.5t170 228t243.5 140.5t286.5 47q178 0 317.5 -50t239.5 -147t152.5 -229t58.5 -294q0 -163 -59 -305.5t-179 -251.5t-290 -163l448 -336q-35 -17 -61 -29.5t-53 -30t-46 -36.5l-448 400q-43 -4 -92 -4q-242 0 -414 103.5 t-257.5 270t-85.5 350.5zM288 720q0 -340 144.5 -506t415.5 -166q139 0 243 53t170.5 143.5t98.5 205t32 238.5q0 112 -17 219t-72 208t-163.5 165t-280.5 64h-27q-116 0 -214.5 -49t-170 -135.5t-112.5 -199.5t-47 -240z" />
<glyph unicode="R" horiz-adv-x="1248" d="M176 0v1408h496q131 0 221.5 -43t134.5 -119t44 -174q0 -124 -69 -208t-164 -125.5t-183 -50.5l544 -688q-60 12 -120 12t-120 -12l-528 672h-64v-672q-48 12 -96 12t-96 -12zM368 752q26 -2 74 -2q189 0 287.5 61t124.5 132.5t26 128.5q0 47 -27.5 105.5t-102.5 104.5 t-206 46h-176v-576z" />
<glyph unicode="S" horiz-adv-x="1024" d="M80 96q22 54 27 93t5 99h32q68 -97 124 -142t98.5 -55.5t97.5 -10.5q84 0 146.5 38t94.5 100.5t32 133.5q0 86 -45 156t-132 100l-208 96q-113 52 -165 112.5t-63.5 119t-11.5 152.5q26 181 152 267.5t289 86.5q103 0 190 -32t121 -82q-40 -40 -64 -160h-32 q-8 36 -40.5 77.5t-87 70t-128.5 28.5q-57 0 -111 -34.5t-87.5 -91t-33.5 -118.5q0 -147 184 -236l224 -96q118 -50 175.5 -137t57.5 -194q0 -115 -64 -223.5t-180.5 -177t-260.5 -68.5q-92 0 -188.5 38.5t-147.5 89.5z" />
<glyph unicode="T" d="M32 1264q12 36 12 72t-12 72h1072q-12 -36 -12 -72t12 -72q-42 7 -156.5 22.5t-186 20.5t-105.5 5v-1312q-36 12 -82 12t-94 -12v1312q-36 0 -125.5 -8t-176 -19.5t-146.5 -20.5z" />
<glyph unicode="U" horiz-adv-x="1584" d="M176 544v864q60 -12 102 -12t90 12v-832q0 -180 53.5 -293.5t150 -166t228.5 -52.5q158 0 253.5 56t141 165t53.5 275v848q36 -12 64 -12t64 12v-816q0 -190 -59.5 -330t-191.5 -217t-341 -77q-13 0 -20.5 -0.5t-17.5 -0.5q-212 0 -339 78.5t-179 207t-52 291.5z" />
<glyph unicode="V" horiz-adv-x="1360" d="M32 1392q60 -12 110 -12t98 12l480 -1152q45 73 106.5 208.5t131.5 313t126 334.5t100 296q36 -12 80 -12t80 12l-592 -1392q-12 12 -34 12t-46 -12z" />
<glyph unicode="W" horiz-adv-x="2032" d="M0 1392q60 -12 104 -12t104 12l352 -1168l400 1168q36 -12 64 -12t64 12l384 -1152l368 1152q36 -12 72 -12t72 12l-480 -1392q-36 12 -72 12t-72 -12l-368 1152l-384 -1152q-24 12 -68 12t-92 -12z" />
<glyph unicode="X" horiz-adv-x="1248" d="M64 0l480 704l-432 688q48 -12 112 -12t112 12l320 -528l336 528q36 -12 66 -12t78 12l-432 -624l480 -768q-60 12 -120 12t-120 -12l-352 624l-352 -624q-36 12 -76 12t-100 -12z" />
<glyph unicode="Y" horiz-adv-x="1248" d="M32 1392q72 -12 126 -12t114 12l384 -672l368 672q48 -12 88 -12t88 12q-127 -186 -198 -293t-148.5 -235.5t-133.5 -239.5v-624q-48 12 -90 12t-102 -12v592z" />
<glyph unicode="Z" horiz-adv-x="1248" d="M32 0v64l880 1232q-135 0 -286 -5t-240.5 -10t-273.5 -17q12 36 12 64t-12 64h1088v-48q-439 -585 -896 -1248q213 0 351 2t275.5 12.5t253.5 33.5q-12 -48 -12 -78t12 -66h-1152z" />
<glyph unicode="[" horiz-adv-x="672" d="M272 -240v1760h336v-64h-208v-1632h208v-64h-336z" />
<glyph unicode="\" horiz-adv-x="1024" d="M48 1520q36 -12 78 -12t66 12l768 -1520q-36 12 -72 12t-72 -12z" />
<glyph unicode="]" horiz-adv-x="672" d="M64 -160h208v1616h-208v64h336v-1744h-336v64z" />
<glyph unicode="^" horiz-adv-x="1232" d="M80 560l464 832h128l464 -832h-160l-368 656l-368 -656h-160z" />
<glyph unicode="_" horiz-adv-x="1024" d="M0 -224h1008v-96h-1008v96z" />
<glyph unicode="`" horiz-adv-x="672" d="M32 1361q0 28 27.5 48t62.5 20q33 0 54 -21l320 -320h-96l-320 208q-48 30 -48 65z" />
<glyph unicode="a" horiz-adv-x="1024" d="M96 224q0 67 25 119t81.5 91t149.5 62l256 48q44 9 65.5 39.5t21.5 73.5q0 54 -30.5 109.5t-86.5 92.5t-130 37q-69 0 -123 -34t-117 -110h-32v112q59 35 104.5 57t105.5 38.5t126 16.5q182 0 267 -79t85 -257v-512q0 -57 55 -57q19 0 57 9v-48q-49 -40 -117 -40 q-61 0 -111.5 33t-59.5 87q-151 -143 -314 -143q-117 0 -197.5 74.5t-80.5 180.5zM267 246q0 -22 5 -54q8 -45 62.5 -83t123.5 -38q129 0 230 137v272q-154 -15 -245 -43t-133.5 -74.5t-42.5 -116.5z" />
<glyph unicode="b" d="M128 0v1520q36 -12 88 -12t88 12v-736q33 50 89.5 94t126 71t136.5 27q133 0 229 -67.5t144.5 -178.5t48.5 -235q0 -96 -28 -186t-85 -163.5t-144.5 -121.5t-196.5 -56q-85 0 -167 36.5t-153 107.5l-128 -112h-48zM302 416q0 -94 30 -178.5t92 -137t152 -52.5 q81 0 151.5 49.5t111.5 147.5t41 235q0 107 -27.5 198t-88 147t-150.5 56q-14 0 -22 -1q-59 0 -111.5 -33t-92.5 -91t-62 -133.5t-22 -158.5q-2 -32 -2 -48z" />
<glyph unicode="c" horiz-adv-x="1024" d="M80 464q0 155 60 269.5t182.5 178.5t301.5 64q98 0 157 -18t147 -62l-32 -144h-32q-49 74 -113.5 109t-158.5 35q-100 0 -172.5 -59t-110 -154.5t-37.5 -202.5q0 -109 39 -204t119 -153.5t194 -58.5q91 0 157 31.5t131 96.5l16 -16l-16 -96q-64 -51 -149 -77.5 t-173 -26.5q-129 0 -247.5 55.5t-190.5 166t-72 266.5z" />
<glyph unicode="d" d="M64 432q0 132 29 235.5t87 176.5t141.5 110.5t190.5 37.5q68 0 140.5 -27t118 -69t45.5 -80v720q48 -12 88 -12t88 12v-1536q-36 12 -82 12t-94 -12v176q-72 -100 -158.5 -146.5t-177.5 -46.5q-106 0 -203 59.5t-155 163t-58 226.5zM256 464q0 -210 83.5 -297t172.5 -87 q8 -1 24 -1q75 0 139.5 47t102.5 137.5t38 216.5q0 158 -55.5 287.5t-212.5 129.5q-6 0 -10.5 -0.5t-9.5 -0.5q-168 -10 -220 -138t-52 -294z" />
<glyph unicode="e" horiz-adv-x="1024" d="M64 448q0 169 61 289t166 179.5t237 59.5q152 0 247.5 -69.5t135.5 -167.5t40 -191q0 -43 -7 -68h-688q0 -127 32.5 -215t111.5 -136.5t208 -48.5q85 0 162.5 34t125.5 94l16 -112q-78 -51 -114.5 -72t-100.5 -38.5t-153 -17.5q-158 7 -264 74.5t-157 173.5t-59 232z M256 560h528q0 144 -57 240t-199 96q-83 0 -144.5 -51.5t-94.5 -131t-33 -153.5z" />
<glyph unicode="f" horiz-adv-x="560" d="M32 880q12 12 12 40t-12 40h144q41 304 144 434.5t245 130.5q26 0 59 -5q-16 -64 -16 -160l-16 -16q-64 32 -112 32q-165 0 -165 -212q0 -39 10 -116.5t11 -87.5h224q-12 -12 -12 -34t12 -46h-224v-880q-36 12 -74 12t-86 -12v880h-144z" />
<glyph unicode="g" horiz-adv-x="1024" d="M64 -256q0 119 49.5 183.5t158.5 88.5q-128 51 -128 160q0 47 15.5 77.5t46 55.5t82.5 59q-122 38 -157 107t-35 177v52q16 99 71.5 160t132.5 86.5t164 25.5q86 0 125 -3t55 -6.5t42.5 -7t85.5 -3.5q73 0 188 4v-80l-240 16q38 -23 72 -67t53 -97.5t19 -107.5 q-16 -148 -94 -213t-201 -76.5t-195 -14.5t-86 -32q-14 -33 -14 -54q0 -43 41.5 -66t104 -30.5t143.5 -7.5q27 0 48.5 0.5t51.5 0.5q37 0 57 -3q125 -25 184.5 -84.5t71.5 -187.5q1 -7 1 -21q0 -65 -34.5 -132t-103.5 -124t-163.5 -90t-211.5 -33q-118 0 -209 38.5 t-141 104.5t-50 145zM192 -224q0 -88 76 -164t228 -76q70 0 144.5 24t125 74.5t50.5 125.5q0 70 -17.5 121t-81 85t-189.5 34q-96 0 -167.5 -17t-116.5 -67t-52 -140zM256 624q0 -105 61 -172.5t147 -67.5q16 -2 24 -2q55 0 104.5 31.5t80.5 90t31 136.5q0 128 -62.5 200 t-161.5 72q-127 -11 -175.5 -98.5t-48.5 -189.5z" />
<glyph unicode="h" d="M144 0v1552q48 -12 94 -12t82 12v-736q22 28 49.5 64.5t67 65t100 45.5t151.5 17q86 0 156 -49t109 -132.5t39 -186.5v-640q-48 12 -88 12t-88 -12v624q0 128 -68.5 198t-164.5 70q-66 0 -127 -37.5t-98.5 -113.5t-37.5 -181v-560q-36 12 -82 12t-94 -12z" />
<glyph unicode="i" horiz-adv-x="560" d="M160 1344q0 56 32 85t76 29q47 0 81.5 -30.5t34.5 -83.5q-6 -55 -38.5 -84.5t-75.5 -29.5q-44 0 -77 31.5t-33 82.5zM176 0v992q48 -12 94 -12t82 12v-992q-36 12 -82 12t-94 -12z" />
<glyph unicode="j" horiz-adv-x="560" d="M0 -448q22 -11 43 -11q43 0 81 42t61 128t23 209v1056q36 -12 80 -12t80 12v-1120q0 -103 -43.5 -189t-115 -136.5t-150.5 -50.5q-27 0 -59 8v64zM176 1344q6 46 38.5 73t73.5 27q42 0 74 -30t38 -86q-10 -53 -41 -80t-71 -27q-45 0 -78.5 33.5t-33.5 89.5z" />
<glyph unicode="k" horiz-adv-x="1024" d="M144 0v1568q36 -12 88 -12t88 12v-976q0 -26 13 -26q28 0 106.5 70.5t155 151t189.5 204.5q36 -12 80 -12t80 12v-16l-432 -400l464 -544v-32q-48 12 -96 12t-96 -12q-80 86 -205 242.5t-170.5 208.5t-70.5 52q-18 0 -18 -39v-464q-36 12 -82 12t-94 -12z" />
<glyph unicode="l" horiz-adv-x="560" d="M192 0v1568q48 -12 88 -12t88 12v-1568q-36 12 -82 12t-94 -12z" />
<glyph unicode="m" horiz-adv-x="1696" d="M128 0v992q36 -12 74 -12t86 12v-160q25 42 69 82.5t102 67t117 26.5q91 0 146.5 -15.5t97.5 -58.5t92 -134q30 68 81 116t112 70t127 22q102 0 178.5 -44.5t117.5 -116.5t41 -148q0 -18 -1 -27v-672q-36 12 -82 12t-94 -12v656q0 107 -68 171.5t-160 64.5 q-57 0 -108 -29t-86 -90t-42 -149v-624q-36 12 -80 12t-80 -12v656q0 68 -33.5 120t-89 81t-115.5 29q-90 0 -155 -65.5t-71 -196.5v-624q-36 12 -82 12t-94 -12z" />
<glyph unicode="n" d="M160 0v992q36 -12 88 -12t88 12v-176q34 45 54 69t58.5 54t94.5 49.5t129 19.5q85 0 158 -42.5t117.5 -136.5t44.5 -237v-592q-36 12 -76 12t-100 -12v592q0 139 -67.5 214.5t-161.5 75.5q-64 0 -122 -37t-93.5 -110.5t-35.5 -174.5v-560q-48 12 -88 12t-88 -12z" />
<glyph unicode="o" d="M48 448q0 158 65 282t186 193t277 69q182 0 290 -93.5t149 -212.5t41 -206q0 -83 -28 -167.5t-88.5 -160.5t-158.5 -122.5t-224 -46.5q-7 0 -13 0.5t-16 0.5q-147 0 -256 61.5t-166.5 167t-57.5 235.5zM238 474q0 -14 2 -42q0 -116 64.5 -245t239.5 -139q136 0 222 111 t98 321q0 127 -33 225.5t-101 152.5t-170 54q-148 0 -235 -132.5t-87 -305.5z" />
<glyph unicode="p" d="M128 -528v1504q36 -12 80 -12t80 12v-208q44 121 134.5 172.5t201.5 51.5q124 0 217.5 -52.5t146 -166.5t52.5 -293q0 -98 -26.5 -185.5t-79 -158.5t-132.5 -112t-183 -41q-6 0 -12 0.5t-15 0.5q-120 0 -190.5 53t-113.5 139v-704q-36 12 -80 12t-80 -12zM288 478 q0 -86 16.5 -163.5t77 -146.5t178.5 -88q9 -1 26 -1q61 0 109.5 26.5t82.5 78t52 125t18 171.5q0 114 -21.5 211t-77.5 159.5t-152 62.5q-14 0 -21 -1q-111 0 -182 -94.5t-106 -305.5v-34z" />
<glyph unicode="q" d="M64 480q12 250 117 373t299 123q121 0 207.5 -62t128.5 -146v208q36 -12 88 -12t88 12v-1520q-36 12 -82 12t-94 -12v688q-88 -176 -336 -176q-110 0 -205 53.5t-153 168.5t-58 290zM238 525q0 -15 2 -45q0 -62 14.5 -132t48 -135t89.5 -107t136 -42q103 0 168.5 60 t92.5 150.5t27 189.5q0 79 -22.5 178t-90 176.5t-191.5 77.5q-126 0 -200 -108.5t-74 -262.5z" />
<glyph unicode="r" horiz-adv-x="672" d="M160 0v976q36 -12 80 -12t80 12v-192q31 61 73.5 108t97.5 74.5t118 27.5q9 0 31 -2l-16 -192q-61 32 -111 32q-62 0 -105.5 -41t-65.5 -101t-22 -114v-576q-36 12 -80 12t-80 -12z" />
<glyph unicode="s" horiz-adv-x="784" d="M80 64l48 144h32q86 -148 214 -148q54 0 100 26t74 68.5t28 85.5q-6 56 -33 90t-70.5 53.5t-107.5 36.5t-93 28q-81 27 -128.5 83.5t-47.5 156.5q0 153 102 232t246 79q124 0 228 -55l-48 -160h-32q-12 43 -40 72.5t-65 44.5t-77 15q-61 0 -110 -34.5t-60 -97.5 q-4 -24 -4 -34q0 -60 42.5 -96.5t113.5 -62t136 -47.5q104 -39 155.5 -103.5t51.5 -141.5t-49 -150.5t-134 -119t-184 -45.5q-208 0 -288 80z" />
<glyph unicode="t" horiz-adv-x="560" d="M0 896q12 12 12 34t-12 46h128v192l160 64v-256h224q-12 -24 -12 -40t12 -40h-224v-528q0 -88 7.5 -152t39.5 -114t99 -50q45 0 110 28v-64q-107 -44 -191 -44q-109 0 -167 71t-58 197v656h-128z" />
<glyph unicode="u" d="M128 352v624q36 -12 88 -12t88 12v-576q0 -88 25.5 -160.5t78 -116.5t128.5 -44q16 0 24 1q121 11 172.5 93t51.5 195v608q48 -12 94 -12t82 12v-976q-36 12 -82 12t-94 -12v144q-45 -89 -130 -124.5t-206 -35.5q-199 0 -259.5 109.5t-60.5 258.5z" />
<glyph unicode="v" horiz-adv-x="1024" d="M16 976h208q49 -171 141 -404.5t163 -363.5q68 124 173 393.5t131 374.5h144q-59 -124 -111.5 -243.5t-105 -246t-102 -248t-97.5 -238.5q-24 12 -64 12t-64 -12z" />
<glyph unicode="w" horiz-adv-x="1584" d="M16 976q48 -12 94 -12t82 12q137 -439 256 -736q22 16 56 94.5t78 203t83.5 240.5t70.5 198q24 -12 56 -12t56 12q26 -105 54 -201t63 -201t68.5 -191t70.5 -159q11 33 48 124t94 232t93 237.5t53 158.5q48 -12 78 -12t66 12q-186 -371 -416 -976q-24 12 -58 12t-70 -12 q-16 79 -44.5 177t-65.5 206.5t-67 195t-47 141.5q-28 -50 -63 -134t-69 -177.5t-66 -188t-74 -220.5q-24 12 -58 12t-70 -12q-31 108 -82 255t-105.5 290t-98 255.5t-66.5 175.5z" />
<glyph unicode="x" horiz-adv-x="1024" d="M48 976q60 -12 112 -12t112 12q27 -62 66.5 -124t93 -132.5t96.5 -127.5l288 384q36 -12 80 -12t80 12q-160 -160 -384 -448l368 -496v-32q-48 12 -96 12t-96 -12q-46 73 -94 142.5t-97 135.5t-97 122l-288 -400q-24 12 -58 12t-70 -12v32l368 448z" />
<glyph unicode="y" horiz-adv-x="1024" d="M32 976q60 -12 116 -12t92 12q11 -39 55 -155t72.5 -187t81.5 -195.5t95 -214.5q44 89 118 259.5t126.5 308t59.5 184.5q36 -12 72 -12t72 12l-672 -1504q-24 12 -60 12t-84 -12l272 544z" />
<glyph unicode="z" horiz-adv-x="1024" d="M48 0v48q137 157 240.5 286t211 275t188.5 271q-97 -8 -189.5 -12t-180.5 -8.5t-174 -11.5q12 24 12 50t-12 62h800v-32l-640 -848q224 0 608 32q-7 -22 -7 -43q0 -9 2 -22.5t3.5 -26.5t1.5 -20h-864z" />
<glyph unicode="{" horiz-adv-x="672" d="M112 640q78 31 111.5 67t41 84t7.5 153v336q0 94 41.5 148t105 75t134.5 21q43 0 71 -4q-67 -20 -102.5 -40t-59 -60t-30.5 -108v-384v-51q0 -81 -29 -136t-131 -101q85 -24 122.5 -79t37.5 -161v-352q0 -89 14.5 -139t55.5 -79.5t122 -53.5q-36 -6 -71 -6 q-110 0 -196 56.5t-86 197.5q0 6 0.5 11t0.5 13v336q0 117 -34.5 181t-125.5 75z" />
<glyph unicode="|" horiz-adv-x="672" d="M256 0v1504h128v-1504h-128z" />
<glyph unicode="}" horiz-adv-x="672" d="M64 1520q202 0 277 -69.5t75 -202.5v-368q0 -88 24.5 -148t119.5 -92q-87 -33 -115.5 -84t-28.5 -124v-368q0 -150 -63.5 -220t-220.5 -70q-16 0 -52 2q102 23 139 91t37 197v304q0 129 36.5 188t123.5 84q-63 17 -95 43.5t-43 59.5t-16 104.5t-6 80.5v320 q0 73 -15.5 120t-40.5 72t-59.5 43t-76.5 37z" />
<glyph unicode="~" horiz-adv-x="1232" d="M96 416q120 240 288 240q58 0 117.5 -19t146 -58t120 -51t76.5 -12q58 0 110.5 39t101.5 133l80 -96q-49 -99 -127.5 -161.5t-160.5 -62.5q-59 0 -111 17.5t-121 52.5t-114 52t-102 22q-50 0 -85 -18t-57.5 -45.5t-45.5 -63.5t-36 -49z" />
<glyph unicode="&#xa1;" horiz-adv-x="672" d="M208 896q0 62 36 95t86 33t89 -30t45 -82q0 -73 -36.5 -109.5t-89.5 -36.5t-91.5 34.5t-38.5 95.5zM224 -240l80 896h48l80 -864q0 -13 2 -43t2 -46q0 -55 -20.5 -87t-79.5 -32q-66 0 -89 46t-23 130z" />
<glyph unicode="&#xa2;" d="M128 544q0 102 65.5 207.5t188 174.5t279.5 69q29 0 59 -3l64 224q5 -2 26 -12.5t35 -10.5q15 0 35 7l-64 -224q128 -32 176 -64l-48 -160h-32q-17 42 -37 70t-43 43t-48 15l-240 -784q66 -33 142 -33q87 0 166.5 38t123.5 91v-96q-30 -54 -133 -86t-208 -32 q-85 0 -123 22l-80 -256q-32 16 -96 16l96 256q-127 52 -193.5 139t-88.5 185.5t-22 203.5zM318 498q0 -128 39.5 -218.5t106.5 -135.5l224 768q-116 0 -196.5 -44t-122 -123t-49.5 -185q-2 -21 -2 -62z" />
<glyph unicode="&#xa3;" d="M80 0v144q36 -2 51 -2q155 0 211 81.5t56 222.5q0 51 -5.5 120.5t-8.5 105.5l-208 -16v112q64 -16 192 -16q-12 78 -12 148q0 154 56.5 265.5t151 168.5t202.5 57q77 0 150.5 -28t139.5 -83l-96 -112q-44 77 -89.5 102.5t-102.5 25.5q-237 0 -237 -330q0 -52 6.5 -122.5 t6.5 -91.5q39 -7 91 -7q87 0 229 23v-112l-320 16q10 -49 10 -101q0 -93 -28.5 -180.5t-71 -152.5t-86.5 -94l672 16v-160h-960z" />
<glyph unicode="&#xa4;" d="M48 288l112 112q-108 161 -108 319q0 157 108 305l-112 112l112 96l112 -112q120 120 298 120q85 0 165 -30.5t145 -89.5l112 112l96 -96l-112 -112q115 -115 115 -291q0 -93 -31.5 -181.5t-83.5 -151.5l96 -96l-80 -96l-112 96q-144 -108 -306 -108t-318 108l-96 -96z M191 712q0 -16 1 -24q12 -144 118 -240t250 -96q12 -1 35 -1q164 0 251 98t98 255q1 9 1 27q0 61 -24 126.5t-72 122.5t-116.5 90.5t-156.5 33.5q-87 0 -177 -51.5t-149 -142.5t-59 -198z" />
<glyph unicode="&#xa5;" d="M16 1424q48 -12 114 -12t126 12l336 -704q34 39 88 138.5t106 207.5t99 214.5t59 143.5q48 -12 86 -12t74 12l-304 -544h208v-96h-272l-80 -160v-64h352v-96h-352v-464q-36 12 -82 12t-94 -12v464h-368v96h368v48l-112 176h-256v96h208z" />
<glyph unicode="&#xa6;" horiz-adv-x="416" d="M272 0v1552h128v-1552h-128z" />
<glyph unicode="&#xa7;" horiz-adv-x="1024" d="M112 656q0 148 144 256q-61 109 -61 212q0 90 46.5 162.5t129 113t189.5 40.5q160 0 272 -112q-32 -48 -64 -144h-32q-13 60 -44.5 99.5t-75.5 58t-89 18.5q-38 0 -70.5 -10t-58.5 -26.5t-46 -43.5q-43 -62 -43 -119q0 -93 92 -160t207 -105q149 -51 214 -126t65 -162 q0 -80 -31 -140.5t-88 -147.5q83 -56 83 -181q0 -61 -19 -107q-45 -128 -158 -201t-254 -73q-152 0 -292 82q23 94 23 136q0 29 -7 56h32q43 -72 122 -132t166 -60q57 0 121.5 31t107.5 87t43 122q0 84 -71 131t-230.5 116.5t-241 139.5t-81.5 189zM212 727q0 -43 32.5 -86 t107.5 -81q98 -48 203 -100t165 -92q69 47 69 133q0 65 -52 128t-161 107l-288 128q-28 -20 -52 -59t-24 -78z" />
<glyph unicode="&#xa8;" horiz-adv-x="672" d="M32 1216q0 55 30 82.5t73 27.5q42 0 73.5 -24.5t31.5 -69.5q0 -51 -30 -80.5t-72 -29.5q-39 0 -69.5 25t-36.5 69zM432 1232q6 45 38 70.5t72 25.5q41 0 69.5 -25.5t28.5 -70.5q0 -51 -31 -79.5t-73 -28.5t-73 28.5t-31 79.5z" />
<glyph unicode="&#xa9;" horiz-adv-x="1520" d="M31 727q0 124 77.5 293t241 294.5t402.5 125.5q248 0 415 -105t248 -270.5t89 -344.5q2 -34 2 -50q0 -144 -60 -273t-164 -225t-237.5 -150t-276.5 -54q-146 0 -280.5 60t-236.5 163.5t-160.5 237t-58.5 275.5q-1 7 -1 23zM159 695q0 -132 77 -277t213.5 -241.5 t302.5 -96.5q8 0 13 -0.5t11 -0.5q118 0 230.5 52.5t200 143t136.5 202.5t49 227q0 104 -43.5 212.5t-129.5 204t-205 151.5t-262 56q-167 0 -299 -91.5t-208.5 -234.5t-84.5 -282q-1 -8 -1 -25zM336 704q0 117 55.5 212t161 149t245.5 54q127 0 274 -47q-16 -48 -16 -112 h-32q-92 83 -225 83q-82 0 -155.5 -37.5t-118.5 -115t-45 -186.5q7 -175 96 -253.5t220 -78.5q76 0 147.5 23t112.5 53l-16 -80q-51 -37 -122 -57t-145 -20q-114 0 -213 44t-161.5 138t-62.5 231z" />
<glyph unicode="&#xaa;" horiz-adv-x="656" d="M16 976q0 77 58 120t126.5 58.5t150 26t81.5 19.5q6 22 6 43q0 45 -25.5 79.5t-65.5 52t-75 17.5q-53 0 -89.5 -20t-70.5 -76h-32v80q38 28 107 47.5t143 19.5q96 0 160 -39.5t70 -123.5v-320q0 -45 20.5 -62.5t59.5 -17.5v-32q-56 -8 -91 -8q-45 0 -73 17t-44 55 q-11 -46 -71 -71t-137 -25q-188 0 -208 160zM48 640v80h576v-80h-576zM140 1000q0 -8 4 -24q20 -47 55.5 -73t80.5 -26q80 0 152 83v192q-29 -7 -95 -24t-102.5 -31t-65.5 -39t-29 -58z" />
<glyph unicode="&#xab;" horiz-adv-x="1024" d="M176 480l256 368q15 -8 28.5 -15.5t30 -12t37.5 -4.5l-240 -336l224 -320q-64 -32 -80 -64zM479 480l256 368q15 -8 28.5 -15.5t30 -12t37.5 -4.5l-240 -336l224 -320q-64 -32 -80 -64z" />
<glyph unicode="&#xac;" horiz-adv-x="1232" d="M80 656v144h1024v-576h-128v432h-896z" />
<glyph unicode="&#xad;" horiz-adv-x="672" d="M80 400v144h512v-144h-512z" />
<glyph unicode="&#xae;" horiz-adv-x="1520" d="M47 677q0 7 0.5 12.5t0.5 14.5q0 181 69.5 324.5t179.5 237.5t232 142t223 48q153 -6 288.5 -57.5t240.5 -149.5t164 -239.5t59 -321.5q0 -113 -43 -237t-130 -231t-226 -176.5t-321 -75.5q-9 0 -14 -0.5t-12 -0.5q-181 0 -346 96t-265 259.5t-100 354.5zM175 745 q0 -6 0.5 -11.5t0.5 -13.5q0 -125 43 -241.5t122 -205.5t188.5 -141t238.5 -52q176 7 320 101.5t224.5 236.5t80.5 278q0 8 -0.5 13t-0.5 11q0 74 -34.5 176.5t-108 202.5t-191 164.5t-274.5 64.5q-148 0 -290 -76t-230.5 -209.5t-88.5 -297.5zM496 304v800h304 q112 0 178 -54t66 -129q0 -72 -66 -133t-194 -84l320 -368v-32q-24 12 -58 12t-70 -12l-320 384h-48v-384q-24 12 -56 12t-56 -12zM608 768h144q53 0 91.5 22t58 57.5t19.5 73.5q0 50 -31.5 84.5t-89.5 34.5h-192v-272z" />
<glyph unicode="&#xb1;" horiz-adv-x="1233" />
<glyph unicode="&#xb2;" horiz-adv-x="672" />
<glyph unicode="&#xb3;" horiz-adv-x="672" />
<glyph unicode="&#xb4;" horiz-adv-x="672" d="M208 1088l272 288q43 50 105 50q32 0 55.5 -15.5t23.5 -40.5q0 -44 -72 -90l-304 -192h-80z" />
<glyph unicode="&#xb5;" horiz-adv-x="1137" />
<glyph unicode="&#xb6;" horiz-adv-x="1632" d="M239 1015q0 6 0.5 11.5t0.5 13.5q0 95 24 165t71.5 114.5t120 66.5t168.5 22h528v-1600q-24 12 -66 12t-78 -12v1536h-176v-1536q-36 12 -64 12t-64 -12v864q-40 -5 -72 -5q-106 0 -196 40t-143.5 119.5t-53.5 188.5zM512 1056q0 -94 15.5 -165.5t58.5 -113t118 -41.5 v608q-91 0 -136 -59t-56 -229z" />
<glyph unicode="&#xb7;" horiz-adv-x="560" d="M272 688q0 151 82 254t270 114q99 0 176.5 -47t118.5 -127.5t41 -177.5q-7 -109 -50.5 -189t-117 -121.5t-168.5 -41.5q-152 0 -252 100t-100 236z" />
<glyph unicode="&#xb8;" horiz-adv-x="672" d="M160 -416l16 80q79 -27 139 -27q101 0 101 107q0 11 -11.5 21.5t-30.5 17t-44 6.5q-31 0 -58 -13l-32 32l96 192h80l-64 -128q30 6 55 6q53 0 92 -21t59 -55.5t20 -72.5q0 -71 -62 -121t-180 -50q-79 0 -176 26z" />
<glyph unicode="&#xb9;" horiz-adv-x="672" />
<glyph unicode="&#xba;" horiz-adv-x="688" d="M16 1136q16 101 67.5 165t126.5 93.5t158 29.5q135 0 219.5 -81.5t84.5 -222.5q0 -88 -40 -157t-113.5 -108t-166.5 -39q-177 0 -256.5 91.5t-79.5 228.5zM48 624v80h592v-80h-592zM144 1104q13 -117 57 -178.5t135 -61.5q112 0 160 75.5t48 196.5q0 72 -21 126.5t-61 84 t-94 29.5q-111 0 -167.5 -81.5t-56.5 -190.5z" />
<glyph unicode="&#xbb;" horiz-adv-x="1024" d="M193 160l224 304l-208 336q64 32 80 64l256 -400l-272 -368q-16 32 -80 64zM496 160l224 304l-208 336q64 32 80 64l256 -400l-272 -368q-16 32 -80 64z" />
<glyph unicode="&#xbc;" horiz-adv-x="1696" />
<glyph unicode="&#xbd;" horiz-adv-x="1696" />
<glyph unicode="&#xbe;" horiz-adv-x="1696" />
<glyph unicode="&#xbf;" horiz-adv-x="784" d="M126 -151q0 58 16 105t42 84.5t40 57.5l176 192q79 72 79 152q0 53 -31.5 88.5t-74.5 35.5q-29 0 -53 -20l-32 16l32 64q30 9 60 9q46 0 89.5 -19.5t75.5 -53t51.5 -80t19.5 -96.5q0 -120 -104 -224l-176 -192q-71 -81 -71 -155q0 -67 55.5 -110.5t130.5 -43.5 q110 0 173 85l16 -96q-69 -76 -205 -76q-122 0 -214.5 64t-92.5 172q-2 28 -2 41zM304 880q6 73 43 109.5t87 36.5t88 -35.5t38 -94.5q0 -63 -35.5 -95.5t-88.5 -32.5t-92.5 30.5t-39.5 81.5z" />
<glyph unicode="&#xc0;" horiz-adv-x="1360" d="M16 0l640 1424h48l624 -1424q-10 0 -34.5 1.5t-55.5 3.5t-51 2q-45 0 -83 -7l-224 560h-496l-208 -560q-22 7 -52 7q-13 0 -37.5 -2t-42.5 -3.5t-28 -1.5zM417 1793q0 28 27.5 48t62.5 20q33 0 54 -21l320 -320h-96l-320 208q-48 30 -48 65zM432 656h416l-208 496z" />
<glyph unicode="&#xc1;" horiz-adv-x="1360" d="M16 0l640 1424h48l624 -1424q-10 0 -34.5 1.5t-55.5 3.5t-51 2q-45 0 -83 -7l-224 560h-496l-208 -560q-22 7 -52 7q-13 0 -37.5 -2t-42.5 -3.5t-28 -1.5zM417 1504l272 288q43 50 105 50q32 0 55.5 -15.5t23.5 -40.5q0 -44 -72 -90l-304 -192h-80zM432 656h416l-208 496 z" />
<glyph unicode="&#xc2;" horiz-adv-x="1360" d="M16 0l640 1424h48l624 -1424q-10 0 -34.5 1.5t-55.5 3.5t-51 2q-45 0 -83 -7l-224 560h-496l-208 -560q-22 7 -52 7q-13 0 -37.5 -2t-42.5 -3.5t-28 -1.5zM351 1504l272 368h96l272 -368h-80l-240 224l-240 -224h-80zM432 656h416l-208 496z" />
<glyph unicode="&#xc3;" horiz-adv-x="1360" d="M16 0l640 1424h48l624 -1424q-10 0 -34.5 1.5t-55.5 3.5t-51 2q-45 0 -83 -7l-224 560h-496l-208 -560q-22 7 -52 7q-13 0 -37.5 -2t-42.5 -3.5t-28 -1.5zM319 1535q11 87 64 140t112 68q13 3 28 3q33 0 70.5 -13.5t88 -39t76.5 -35.5t53 -10q75 0 116 111l64 -16 q-9 -37 -35.5 -87t-70.5 -85.5t-102 -35.5q-53 0 -93.5 16t-105.5 48t-89 32q-44 0 -64 -20t-48 -76h-64zM432 656h416l-208 496z" />
<glyph unicode="&#xc4;" horiz-adv-x="1360" d="M16 0l640 1424h48l624 -1424q-10 0 -34.5 1.5t-55.5 3.5t-51 2q-45 0 -83 -7l-224 560h-496l-208 -560q-22 7 -52 7q-13 0 -37.5 -2t-42.5 -3.5t-28 -1.5zM368 1632q0 55 30 82.5t73 27.5q42 0 73.5 -24.5t31.5 -69.5q0 -51 -30 -80.5t-72 -29.5q-39 0 -69.5 25t-36.5 69 zM432 656h416l-208 496zM768 1648q6 45 38 70.5t72 25.5q41 0 69.5 -25.5t28.5 -70.5q0 -51 -31 -79.5t-73 -28.5t-73 28.5t-31 79.5z" />
<glyph unicode="&#xc5;" horiz-adv-x="1360" d="M16 0l640 1424h48l624 -1424q-10 0 -34.5 1.5t-55.5 3.5t-51 2q-45 0 -83 -7l-224 560h-496l-208 -560q-22 7 -52 7q-13 0 -37.5 -2t-42.5 -3.5t-28 -1.5zM432 656h416l-208 496zM465 1713q0 50 27 102.5t78 87t119 34.5q73 -7 120.5 -44t67.5 -85.5t20 -94.5 q0 -49 -25.5 -97t-73 -79.5t-109.5 -31.5q-61 0 -113 31.5t-81.5 80t-29.5 96.5zM561 1713q6 -55 41 -84.5t80 -29.5q48 0 83.5 31.5t35.5 82.5q0 59 -35.5 92.5t-82.5 33.5t-81.5 -31.5t-40.5 -94.5z" />
<glyph unicode="&#xc6;" horiz-adv-x="1696" d="M0 0l928 1408h688q-12 -36 -12 -66t12 -78q-51 15 -143 21.5t-183.5 8.5t-185.5 2v-512h208q92 0 144.5 2.5t95.5 13.5q-12 -36 -12 -64t12 -64l-208 16h-240v-592q124 0 215.5 2t176 8t136.5 22q-12 -36 -12 -64t12 -64h-704v496h-464q-24 -40 -74 -123t-81 -137.5 t-63 -117.5t-54 -118q-48 12 -90 12t-102 -12zM512 592h416v656z" />
<glyph unicode="&#xc7;" horiz-adv-x="1360" d="M80 688q0 205 71 352t185.5 234.5t248 126.5t263.5 39q97 0 185 -16t157.5 -38.5t105.5 -41.5l-48 -176h-16q-37 60 -108 99.5t-149.5 58t-142.5 18.5q-148 0 -254.5 -61t-170 -161t-91.5 -216t-28 -234q0 -138 62 -283t187 -243t295 -98q89 0 166.5 22.5t144.5 61.5 t137 92l-16 -144q-61 -51 -183.5 -83t-236.5 -32q-31 0 -60 3l-48 -80q121 0 181.5 -38t60.5 -111q0 -9 -2 -27q-16 -70 -83.5 -106.5t-163.5 -36.5q-93 0 -185 31l32 64q57 -21 109 -21q62 0 99 28t37 62q0 29 -24 47t-71 18q-24 0 -54 -6l-32 16l64 160q-182 17 -322 103 t-221 243t-81 374z" />
<glyph unicode="&#xc8;" horiz-adv-x="1024" d="M176 0v1392h736q-12 -36 -12 -64t12 -64q-100 20 -266 20q-47 0 -141 -2t-137 -2v-496h304l192 16q-12 -24 -12 -58t12 -70l-240 16h-256v-576q52 -7 149 -7q95 0 214.5 7t196.5 16q-12 -36 -12 -70t12 -58h-752zM241 1760q0 28 27.5 48t62.5 20q33 0 54 -21l320 -320 h-96l-320 208q-48 30 -48 65z" />
<glyph unicode="&#xc9;" horiz-adv-x="1024" d="M176 0v1392h736q-12 -36 -12 -64t12 -64q-100 20 -266 20q-47 0 -141 -2t-137 -2v-496h304l192 16q-12 -24 -12 -58t12 -70l-240 16h-256v-576q52 -7 149 -7q95 0 214.5 7t196.5 16q-12 -36 -12 -70t12 -58h-752zM241 1487l272 288q43 50 105 50q32 0 55.5 -15.5 t23.5 -40.5q0 -44 -72 -90l-304 -192h-80z" />
<glyph unicode="&#xca;" horiz-adv-x="1024" d="M176 0v1392h736q-12 -36 -12 -64t12 -64q-100 20 -266 20q-47 0 -141 -2t-137 -2v-496h304l192 16q-12 -24 -12 -58t12 -70l-240 16h-256v-576q52 -7 149 -7q95 0 214.5 7t196.5 16q-12 -36 -12 -70t12 -58h-752zM225 1488l272 368h96l272 -368h-80l-240 224l-240 -224 h-80z" />
<glyph unicode="&#xcb;" horiz-adv-x="1024" d="M176 0v1392h736q-12 -36 -12 -64t12 -64q-100 20 -266 20q-47 0 -141 -2t-137 -2v-496h304l192 16q-12 -24 -12 -58t12 -70l-240 16h-256v-576q52 -7 149 -7q95 0 214.5 7t196.5 16q-12 -36 -12 -70t12 -58h-752zM255 1615q0 55 30 82.5t73 27.5q42 0 73.5 -24.5 t31.5 -69.5q0 -51 -30 -80.5t-72 -29.5q-39 0 -69.5 25t-36.5 69zM655 1631q6 45 38 70.5t72 25.5q41 0 69.5 -25.5t28.5 -70.5q0 -51 -31 -79.5t-73 -28.5t-73 28.5t-31 79.5z" />
<glyph unicode="&#xcc;" horiz-adv-x="560" d="M16 1760q0 28 27.5 48t62.5 20q33 0 54 -21l320 -320h-96l-320 208q-48 30 -48 65zM192 0v1408q36 -12 88 -12t88 12v-1408q-36 12 -88 12t-88 -12z" />
<glyph unicode="&#xcd;" horiz-adv-x="560" d="M-1 1487l272 288q43 50 105 50q32 0 55.5 -15.5t23.5 -40.5q0 -44 -72 -90l-304 -192h-80zM192 0v1408q36 -12 88 -12t88 12v-1408q-36 12 -88 12t-88 -12z" />
<glyph unicode="&#xce;" horiz-adv-x="559" d="M-48 1488l272 368h96l272 -368h-80l-240 224l-240 -224h-80zM192 0v1408q36 -12 88 -12t88 12v-1408q-36 12 -88 12t-88 -12z" />
<glyph unicode="&#xcf;" horiz-adv-x="560" d="M-31 1615q0 55 30 82.5t73 27.5q42 0 73.5 -24.5t31.5 -69.5q0 -51 -30 -80.5t-72 -29.5q-39 0 -69.5 25t-36.5 69zM192 0v1408q36 -12 88 -12t88 12v-1408q-36 12 -88 12t-88 -12zM369 1631q6 45 38 70.5t72 25.5q41 0 69.5 -25.5t28.5 -70.5q0 -51 -31 -79.5t-73 -28.5 t-73 28.5t-31 79.5z" />
<glyph unicode="&#xd0;" horiz-adv-x="1583" />
<glyph unicode="&#xd1;" horiz-adv-x="1584" d="M176 0v1408h96l976 -1072v1072q24 -12 64 -12t64 12v-1408h-80l-992 1104v-1104q-24 12 -58 12t-70 -12zM449 1535q11 87 64 140t112 68q13 3 28 3q33 0 70.5 -13.5t88 -39t76.5 -35.5t53 -10q75 0 116 111l64 -16q-9 -37 -35.5 -87t-70.5 -85.5t-102 -35.5 q-53 0 -93.5 16t-105.5 48t-89 32q-44 0 -64 -20t-48 -76h-64z" />
<glyph unicode="&#xd2;" horiz-adv-x="1696" d="M47 704q0 135 50.5 267t148 237.5t246.5 168.5t339 63q221 -6 371.5 -72.5t234 -171.5t119.5 -225t43 -251v-28q0 -164 -61.5 -298t-171.5 -230.5t-246.5 -146.5t-286.5 -50q-8 0 -15.5 0.5t-18.5 0.5q-129 0 -259.5 40.5t-243 128.5t-181 230t-68.5 337zM255 704 q0 -306 159.5 -481t416.5 -175q114 0 211 43.5t172 129.5t120 208t57 275q1 12 1 35q0 130 -42.5 245t-119 199t-183 130.5t-232.5 46.5q-142 0 -245 -60.5t-167.5 -157.5t-99 -209.5t-48.5 -228.5zM544 1760q0 28 27.5 48t62.5 20q33 0 54 -21l320 -320h-96l-320 208 q-48 30 -48 65z" />
<glyph unicode="&#xd3;" horiz-adv-x="1696" d="M64 688q0 135 50.5 267t148 237.5t246.5 168.5t339 63q221 -6 371.5 -72.5t234 -171.5t119.5 -225t43 -251v-28q0 -164 -61.5 -298t-171.5 -230.5t-246.5 -146.5t-286.5 -50q-8 0 -15.5 0.5t-18.5 0.5q-129 0 -259.5 40.5t-243 128.5t-181 230t-68.5 337zM272 688 q0 -306 159.5 -481t416.5 -175q114 0 211 43.5t172 129.5t120 208t57 275q1 12 1 35q0 130 -42.5 245t-119 199t-183 130.5t-232.5 46.5q-142 0 -245 -60.5t-167.5 -157.5t-99 -209.5t-48.5 -228.5zM544 1487l272 288q43 50 105 50q32 0 55.5 -15.5t23.5 -40.5 q0 -44 -72 -90l-304 -192h-80z" />
<glyph unicode="&#xd4;" horiz-adv-x="1696" d="M64 688q0 135 50.5 267t148 237.5t246.5 168.5t339 63q221 -6 371.5 -72.5t234 -171.5t119.5 -225t43 -251v-28q0 -164 -61.5 -298t-171.5 -230.5t-246.5 -146.5t-286.5 -50q-8 0 -15.5 0.5t-18.5 0.5q-129 0 -259.5 40.5t-243 128.5t-181 230t-68.5 337zM272 688 q0 -306 159.5 -481t416.5 -175q114 0 211 43.5t172 129.5t120 208t57 275q1 12 1 35q0 130 -42.5 245t-119 199t-183 130.5t-232.5 46.5q-142 0 -245 -60.5t-167.5 -157.5t-99 -209.5t-48.5 -228.5zM528 1488l272 368h96l272 -368h-80l-240 224l-240 -224h-80z" />
<glyph unicode="&#xd5;" horiz-adv-x="1696" d="M64 688q0 135 50.5 267t148 237.5t246.5 168.5t339 63q221 -6 371.5 -72.5t234 -171.5t119.5 -225t43 -251v-28q0 -164 -61.5 -298t-171.5 -230.5t-246.5 -146.5t-286.5 -50q-8 0 -15.5 0.5t-18.5 0.5q-129 0 -259.5 40.5t-243 128.5t-181 230t-68.5 337zM272 688 q0 -306 159.5 -481t416.5 -175q114 0 211 43.5t172 129.5t120 208t57 275q1 12 1 35q0 130 -42.5 245t-119 199t-183 130.5t-232.5 46.5q-142 0 -245 -60.5t-167.5 -157.5t-99 -209.5t-48.5 -228.5zM496 1521q11 87 64 140t112 68q13 3 28 3q33 0 70.5 -13.5t88 -39 t76.5 -35.5t53 -10q75 0 116 111l64 -16q-9 -37 -35.5 -87t-70.5 -85.5t-102 -35.5q-53 0 -93.5 16t-105.5 48t-89 32q-44 0 -64 -20t-48 -76h-64z" />
<glyph unicode="&#xd6;" horiz-adv-x="1696" d="M64 688q0 135 50.5 267t148 237.5t246.5 168.5t339 63q221 -6 371.5 -72.5t234 -171.5t119.5 -225t43 -251v-28q0 -164 -61.5 -298t-171.5 -230.5t-246.5 -146.5t-286.5 -50q-8 0 -15.5 0.5t-18.5 0.5q-129 0 -259.5 40.5t-243 128.5t-181 230t-68.5 337zM272 688 q0 -306 159.5 -481t416.5 -175q114 0 211 43.5t172 129.5t120 208t57 275q1 12 1 35q0 130 -42.5 245t-119 199t-183 130.5t-232.5 46.5q-142 0 -245 -60.5t-167.5 -157.5t-99 -209.5t-48.5 -228.5zM528 1615q0 55 30 82.5t73 27.5q42 0 73.5 -24.5t31.5 -69.5 q0 -51 -30 -80.5t-72 -29.5q-39 0 -69.5 25t-36.5 69zM928 1631q6 45 38 70.5t72 25.5q41 0 69.5 -25.5t28.5 -70.5q0 -51 -31 -79.5t-73 -28.5t-73 28.5t-31 79.5z" />
<glyph unicode="&#xd8;" horiz-adv-x="1696" d="M80 656q0 157 50.5 299t147.5 251.5t238 171.5t316 62q117 0 214.5 -21t166 -53.5t115.5 -69.5l176 208q6 -13 16.5 -24t25 -21.5t22.5 -18.5l-176 -192q77 -88 120.5 -149t73.5 -156.5t30 -238.5q0 -232 -112 -402.5t-303 -260t-417 -89.5q-100 0 -211.5 37t-204.5 107 l-192 -224q0 24 -20 44t-44 20l192 224q-51 34 -104 105t-86.5 171.5t-33.5 219.5zM283 680q0 -105 25.5 -215t75.5 -209l848 928q-17 39 -62 71.5t-109.5 57.5t-119 36t-93.5 11q-138 -7 -245 -65t-178 -152.5t-106.5 -215t-35.5 -247.5zM432 192q97 -77 202 -115t209 -38 q114 0 216 45t176.5 133.5t108.5 214.5q18 45 35 133.5t17 183.5q0 235 -116 371z" />
<glyph unicode="&#xd9;" horiz-adv-x="1584" d="M176 544v864q60 -12 102 -12t90 12v-832q0 -180 53.5 -293.5t150 -166t228.5 -52.5q158 0 253.5 56t141 165t53.5 275v848q36 -12 64 -12t64 12v-816q0 -190 -59.5 -330t-191.5 -217t-341 -77q-13 0 -20.5 -0.5t-17.5 -0.5q-212 0 -339 78.5t-179 207t-52 291.5z M511 1793q0 28 27.5 48t62.5 20q33 0 54 -21l320 -320h-96l-320 208q-48 30 -48 65z" />
<glyph unicode="&#xda;" horiz-adv-x="1584" d="M176 544v864q60 -12 102 -12t90 12v-832q0 -180 53.5 -293.5t150 -166t228.5 -52.5q158 0 253.5 56t141 165t53.5 275v848q36 -12 64 -12t64 12v-816q0 -190 -59.5 -330t-191.5 -217t-341 -77q-13 0 -20.5 -0.5t-17.5 -0.5q-212 0 -339 78.5t-179 207t-52 291.5z M431 1504l272 288q43 50 105 50q32 0 55.5 -15.5t23.5 -40.5q0 -44 -72 -90l-304 -192h-80z" />
<glyph unicode="&#xdb;" horiz-adv-x="1584" d="M176 544v864q60 -12 102 -12t90 12v-832q0 -180 53.5 -293.5t150 -166t228.5 -52.5q158 0 253.5 56t141 165t53.5 275v848q36 -12 64 -12t64 12v-816q0 -190 -59.5 -330t-191.5 -217t-341 -77q-13 0 -20.5 -0.5t-17.5 -0.5q-212 0 -339 78.5t-179 207t-52 291.5z M464 1504l272 368h96l272 -368h-80l-240 224l-240 -224h-80z" />
<glyph unicode="&#xdc;" horiz-adv-x="1584" d="M176 544v864q60 -12 102 -12t90 12v-832q0 -180 53.5 -293.5t150 -166t228.5 -52.5q158 0 253.5 56t141 165t53.5 275v848q36 -12 64 -12t64 12v-816q0 -190 -59.5 -330t-191.5 -217t-341 -77q-13 0 -20.5 -0.5t-17.5 -0.5q-212 0 -339 78.5t-179 207t-52 291.5z M528 1632q0 55 30 82.5t73 27.5q42 0 73.5 -24.5t31.5 -69.5q0 -51 -30 -80.5t-72 -29.5q-39 0 -69.5 25t-36.5 69zM928 1648q6 45 38 70.5t72 25.5q41 0 69.5 -25.5t28.5 -70.5q0 -51 -31 -79.5t-73 -28.5t-73 28.5t-31 79.5z" />
<glyph unicode="&#xdd;" horiz-adv-x="1247" />
<glyph unicode="&#xde;" horiz-adv-x="1137" />
<glyph unicode="&#xdf;" d="M144 -16v1056q0 255 117.5 375.5t282.5 120.5q111 0 183.5 -40t105.5 -100t33 -120q0 -10 -2 -28q-6 -40 -22 -74t-39 -62.5t-54 -59t-61 -60.5q-58 -58 -58 -123q0 -88 90 -133q163 -98 253 -182t90 -194q0 -122 -135 -264q-111 -122 -288 -122q-62 0 -118 16.5 t-90 41.5l64 112q90 -78 204 -78q109 0 164 78q51 71 51 133q0 48 -27 89t-67.5 73t-106.5 75.5t-90 61.5q-161 94 -161 204q0 99 129 228q73 73 109.5 125t36.5 118q0 9 -2 29q0 43 -23 83t-70.5 66.5t-114.5 26.5q-224 0 -224 -435v-45v-992q-48 12 -80 12t-80 -12z" />
<glyph unicode="&#xe0;" horiz-adv-x="1024" d="M96 224q0 67 25 119t81.5 91t149.5 62l256 48q44 9 65.5 39.5t21.5 73.5q0 54 -30.5 109.5t-86.5 92.5t-130 37q-69 0 -123 -34t-117 -110h-32v112q59 35 104.5 57t105.5 38.5t126 16.5q182 0 267 -79t85 -257v-512q0 -57 55 -57q19 0 57 9v-48q-49 -40 -117 -40 q-61 0 -111.5 33t-59.5 87q-151 -143 -314 -143q-117 0 -197.5 74.5t-80.5 180.5zM208 1361q0 28 27.5 48t62.5 20q33 0 54 -21l320 -320h-96l-320 208q-48 30 -48 65zM267 246q0 -22 5 -54q8 -45 62.5 -83t123.5 -38q129 0 230 137v272q-154 -15 -245 -43t-133.5 -74.5 t-42.5 -116.5z" />
<glyph unicode="&#xe1;" horiz-adv-x="1024" d="M96 224q0 67 25 119t81.5 91t149.5 62l256 48q44 9 65.5 39.5t21.5 73.5q0 54 -30.5 109.5t-86.5 92.5t-130 37q-69 0 -123 -34t-117 -110h-32v112q59 35 104.5 57t105.5 38.5t126 16.5q182 0 267 -79t85 -257v-512q0 -57 55 -57q19 0 57 9v-48q-49 -40 -117 -40 q-61 0 -111.5 33t-59.5 87q-151 -143 -314 -143q-117 0 -197.5 74.5t-80.5 180.5zM267 246q0 -22 5 -54q8 -45 62.5 -83t123.5 -38q129 0 230 137v272q-154 -15 -245 -43t-133.5 -74.5t-42.5 -116.5zM304 1088l272 288q43 50 105 50q32 0 55.5 -15.5t23.5 -40.5 q0 -44 -72 -90l-304 -192h-80z" />
<glyph unicode="&#xe2;" horiz-adv-x="1024" d="M96 224q0 67 25 119t81.5 91t149.5 62l256 48q44 9 65.5 39.5t21.5 73.5q0 54 -30.5 109.5t-86.5 92.5t-130 37q-69 0 -123 -34t-117 -110h-32v112q59 35 104.5 57t105.5 38.5t126 16.5q182 0 267 -79t85 -257v-512q0 -57 55 -57q19 0 57 9v-48q-49 -40 -117 -40 q-61 0 -111.5 33t-59.5 87q-151 -143 -314 -143q-117 0 -197.5 74.5t-80.5 180.5zM208 1072l272 368h96l272 -368h-80l-240 224l-240 -224h-80zM267 246q0 -22 5 -54q8 -45 62.5 -83t123.5 -38q129 0 230 137v272q-154 -15 -245 -43t-133.5 -74.5t-42.5 -116.5z" />
<glyph unicode="&#xe3;" horiz-adv-x="1024" d="M96 224q0 67 25 119t81.5 91t149.5 62l256 48q44 9 65.5 39.5t21.5 73.5q0 54 -30.5 109.5t-86.5 92.5t-130 37q-69 0 -123 -34t-117 -110h-32v112q59 35 104.5 57t105.5 38.5t126 16.5q182 0 267 -79t85 -257v-512q0 -57 55 -57q19 0 57 9v-48q-49 -40 -117 -40 q-61 0 -111.5 33t-59.5 87q-151 -143 -314 -143q-117 0 -197.5 74.5t-80.5 180.5zM176 1103q11 87 64 140t112 68q13 3 28 3q33 0 70.5 -13.5t88 -39t76.5 -35.5t53 -10q75 0 116 111l64 -16q-9 -37 -35.5 -87t-70.5 -85.5t-102 -35.5q-53 0 -93.5 16t-105.5 48t-89 32 q-44 0 -64 -20t-48 -76h-64zM267 246q0 -22 5 -54q8 -45 62.5 -83t123.5 -38q129 0 230 137v272q-154 -15 -245 -43t-133.5 -74.5t-42.5 -116.5z" />
<glyph unicode="&#xe4;" horiz-adv-x="1024" d="M96 224q0 67 25 119t81.5 91t149.5 62l256 48q44 9 65.5 39.5t21.5 73.5q0 54 -30.5 109.5t-86.5 92.5t-130 37q-69 0 -123 -34t-117 -110h-32v112q59 35 104.5 57t105.5 38.5t126 16.5q182 0 267 -79t85 -257v-512q0 -57 55 -57q19 0 57 9v-48q-49 -40 -117 -40 q-61 0 -111.5 33t-59.5 87q-151 -143 -314 -143q-117 0 -197.5 74.5t-80.5 180.5zM225 1200q0 55 30 82.5t73 27.5q42 0 73.5 -24.5t31.5 -69.5q0 -51 -30 -80.5t-72 -29.5q-39 0 -69.5 25t-36.5 69zM267 246q0 -22 5 -54q8 -45 62.5 -83t123.5 -38q129 0 230 137v272 q-154 -15 -245 -43t-133.5 -74.5t-42.5 -116.5zM625 1216q6 45 38 70.5t72 25.5q41 0 69.5 -25.5t28.5 -70.5q0 -51 -31 -79.5t-73 -28.5t-73 28.5t-31 79.5z" />
<glyph unicode="&#xe5;" horiz-adv-x="1024" d="M96 224q0 67 25 119t81.5 91t149.5 62l256 48q44 9 65.5 39.5t21.5 73.5q0 54 -30.5 109.5t-86.5 92.5t-130 37q-69 0 -123 -34t-117 -110h-32v112q59 35 104.5 57t105.5 38.5t126 16.5q182 0 267 -79t85 -257v-512q0 -57 55 -57q19 0 57 9v-48q-49 -40 -117 -40 q-61 0 -111.5 33t-59.5 87q-151 -143 -314 -143q-117 0 -197.5 74.5t-80.5 180.5zM267 246q0 -22 5 -54q8 -45 62.5 -83t123.5 -38q129 0 230 137v272q-154 -15 -245 -43t-133.5 -74.5t-42.5 -116.5zM305 1280q0 50 27 102.5t78 87t119 34.5q73 -7 120.5 -44t67.5 -85.5 t20 -94.5q0 -49 -25.5 -97t-73 -79.5t-109.5 -31.5q-61 0 -113 31.5t-81.5 80t-29.5 96.5zM401 1280q6 -55 41 -84.5t80 -29.5q48 0 83.5 31.5t35.5 82.5q0 59 -35.5 92.5t-82.5 33.5t-81.5 -31.5t-40.5 -94.5z" />
<glyph unicode="&#xe6;" horiz-adv-x="1584" d="M47 220q0 13 1 20q0 121 71.5 180t205.5 84t218 39.5t113 48.5q8 34 8 65q0 59 -25.5 114.5t-78.5 90t-128 34.5q-74 0 -153.5 -43t-102.5 -101h-32v112q63 73 154 100.5t166 27.5q111 0 204 -45t116 -115q54 87 142.5 123.5t177.5 36.5q141 0 237 -61t140 -159t44 -214 q0 -35 -5 -78h-704q-1 -10 -1 -29q0 -96 45.5 -181.5t124 -137.5t167.5 -52q118 0 204 41t116 87v-96q-46 -57 -146 -92.5t-190 -35.5q-171 0 -269.5 64t-162.5 160q-34 -115 -137.5 -177.5t-230.5 -62.5q-68 0 -135.5 35t-110.5 93.5t-43 123.5zM232 246q0 -35 8 -70 q12 -45 66 -74t122 -29q91 0 156.5 60.5t71.5 186.5v176q-22 -7 -118 -24.5t-160 -39.5t-105 -66.5t-41 -119.5zM832 576h528q0 90 -28 167t-86.5 123t-141.5 46q-124 0 -191.5 -95t-80.5 -241z" />
<glyph unicode="&#xe7;" horiz-adv-x="1024" d="M64 512q6 136 57 233.5t129.5 154.5t167.5 82.5t174 25.5q59 0 116 -8t112.5 -29t107.5 -59l-48 -144h-32q0 26 -36 64.5t-94 67t-126 28.5q-157 -6 -247.5 -132t-90.5 -295q0 -112 41.5 -210t124.5 -160.5t204 -66.5q54 0 137.5 38.5t150.5 105.5l16 -16l-16 -96 q-52 -52 -140 -83.5t-177 -31.5q-25 0 -51 3l-48 -96q32 10 63 10q72 0 124.5 -39t52.5 -115q-25 -167 -242 -167q-84 0 -174 23l16 80q76 -21 132 -21q59 0 87.5 21t28.5 51q0 32 -27.5 57.5t-70.5 25.5q-18 0 -38 -6l-48 16l80 160q-159 48 -250 119t-128.5 171t-37.5 238 z" />
<glyph unicode="&#xe8;" horiz-adv-x="1024" d="M64 448q0 169 61 289t166 179.5t237 59.5q152 0 247.5 -69.5t135.5 -167.5t40 -191q0 -43 -7 -68h-688q0 -127 32.5 -215t111.5 -136.5t208 -48.5q85 0 162.5 34t125.5 94l16 -112q-78 -51 -114.5 -72t-100.5 -38.5t-153 -17.5q-158 7 -264 74.5t-157 173.5t-59 232z M241 1361q0 28 27.5 48t62.5 20q33 0 54 -21l320 -320h-96l-320 208q-48 30 -48 65zM256 560h528q0 144 -57 240t-199 96q-83 0 -144.5 -51.5t-94.5 -131t-33 -153.5z" />
<glyph unicode="&#xe9;" horiz-adv-x="1024" d="M64 464q0 169 61 289t166 179.5t237 59.5q152 0 247.5 -69.5t135.5 -167.5t40 -191q0 -43 -7 -68h-688q0 -127 32.5 -215t111.5 -136.5t208 -48.5q85 0 162.5 34t125.5 94l16 -112q-78 -51 -114.5 -72t-100.5 -38.5t-153 -17.5q-158 7 -264 74.5t-157 173.5t-59 232z M256 576h528q0 144 -57 240t-199 96q-83 0 -144.5 -51.5t-94.5 -131t-33 -153.5zM337 1088l272 288q43 50 105 50q32 0 55.5 -15.5t23.5 -40.5q0 -44 -72 -90l-304 -192h-80z" />
<glyph unicode="&#xea;" horiz-adv-x="1024" d="M64 464q0 169 61 289t166 179.5t237 59.5q152 0 247.5 -69.5t135.5 -167.5t40 -191q0 -43 -7 -68h-688q0 -127 32.5 -215t111.5 -136.5t208 -48.5q85 0 162.5 34t125.5 94l16 -112q-78 -51 -114.5 -72t-100.5 -38.5t-153 -17.5q-158 7 -264 74.5t-157 173.5t-59 232z M208 1072l272 368h96l272 -368h-80l-240 224l-240 -224h-80zM256 576h528q0 144 -57 240t-199 96q-83 0 -144.5 -51.5t-94.5 -131t-33 -153.5z" />
<glyph unicode="&#xeb;" horiz-adv-x="1024" d="M64 464q0 169 61 289t166 179.5t237 59.5q152 0 247.5 -69.5t135.5 -167.5t40 -191q0 -43 -7 -68h-688q0 -127 32.5 -215t111.5 -136.5t208 -48.5q85 0 162.5 34t125.5 94l16 -112q-78 -51 -114.5 -72t-100.5 -38.5t-153 -17.5q-158 7 -264 74.5t-157 173.5t-59 232z M225 1200q0 55 30 82.5t73 27.5q42 0 73.5 -24.5t31.5 -69.5q0 -51 -30 -80.5t-72 -29.5q-39 0 -69.5 25t-36.5 69zM256 576h528q0 144 -57 240t-199 96q-83 0 -144.5 -51.5t-94.5 -131t-33 -153.5zM625 1216q6 45 38 70.5t72 25.5q41 0 69.5 -25.5t28.5 -70.5 q0 -51 -31 -79.5t-73 -28.5t-73 28.5t-31 79.5z" />
<glyph unicode="&#xec;" horiz-adv-x="559" d="M32 1361q0 28 27.5 48t62.5 20q33 0 54 -21l320 -320h-96l-320 208q-48 30 -48 65zM192 0v976q36 -12 80 -12t80 12v-976q-24 12 -74 12t-86 -12z" />
<glyph unicode="&#xed;" horiz-adv-x="559" d="M192 0v976q36 -12 80 -12t80 12v-976q-24 12 -74 12t-86 -12zM208 1088l272 288q43 50 105 50q32 0 55.5 -15.5t23.5 -40.5q0 -44 -72 -90l-304 -192h-80z" />
<glyph unicode="&#xee;" horiz-adv-x="560" d="M-31 1088l272 368h96l272 -368h-80l-240 224l-240 -224h-80zM192 0v976q36 -12 80 -12t80 12v-976q-24 12 -74 12t-86 -12z" />
<glyph unicode="&#xef;" horiz-adv-x="560" d="M-31 1216q0 55 30 82.5t73 27.5q42 0 73.5 -24.5t31.5 -69.5q0 -51 -30 -80.5t-72 -29.5q-39 0 -69.5 25t-36.5 69zM192 0v976q36 -12 80 -12t80 12v-976q-24 12 -74 12t-86 -12zM369 1232q6 45 38 70.5t72 25.5q41 0 69.5 -25.5t28.5 -70.5q0 -51 -31 -79.5t-73 -28.5 t-73 28.5t-31 79.5z" />
<glyph unicode="&#xf0;" horiz-adv-x="1137" />
<glyph unicode="&#xf1;" d="M160 0v992q36 -12 88 -12t88 12v-176q34 45 54 69t58.5 54t94.5 49.5t129 19.5q85 0 158 -42.5t117.5 -136.5t44.5 -237v-592q-36 12 -76 12t-100 -12v592q0 139 -67.5 214.5t-161.5 75.5q-64 0 -122 -37t-93.5 -110.5t-35.5 -174.5v-560q-48 12 -88 12t-88 -12z M240 1152q11 87 64 140t112 68q13 3 28 3q33 0 70.5 -13.5t88 -39t76.5 -35.5t53 -10q75 0 116 111l64 -16q-9 -37 -35.5 -87t-70.5 -85.5t-102 -35.5q-53 0 -93.5 16t-105.5 48t-89 32q-44 0 -64 -20t-48 -76h-64z" />
<glyph unicode="&#xf2;" d="M48 448q0 158 65 282t186 193t277 69q182 0 290 -93.5t149 -212.5t41 -206q0 -83 -28 -167.5t-88.5 -160.5t-158.5 -122.5t-224 -46.5q-7 0 -13 0.5t-16 0.5q-147 0 -256 61.5t-166.5 167t-57.5 235.5zM238 474q0 -14 2 -42q0 -116 64.5 -245t239.5 -139q136 0 222 111 t98 321q0 127 -33 225.5t-101 152.5t-170 54q-148 0 -235 -132.5t-87 -305.5zM288 1361q0 28 27.5 48t62.5 20q33 0 54 -21l320 -320h-96l-320 208q-48 30 -48 65z" />
<glyph unicode="&#xf3;" d="M48 448q0 158 65 282t186 193t277 69q182 0 290 -93.5t149 -212.5t41 -206q0 -83 -28 -167.5t-88.5 -160.5t-158.5 -122.5t-224 -46.5q-7 0 -13 0.5t-16 0.5q-147 0 -256 61.5t-166.5 167t-57.5 235.5zM238 474q0 -14 2 -42q0 -116 64.5 -245t239.5 -139q136 0 222 111 t98 321q0 127 -33 225.5t-101 152.5t-170 54q-148 0 -235 -132.5t-87 -305.5zM304 1072l272 288q43 50 105 50q32 0 55.5 -15.5t23.5 -40.5q0 -44 -72 -90l-304 -192h-80z" />
<glyph unicode="&#xf4;" d="M48 448q0 158 65 282t186 193t277 69q182 0 290 -93.5t149 -212.5t41 -206q0 -83 -28 -167.5t-88.5 -160.5t-158.5 -122.5t-224 -46.5q-7 0 -13 0.5t-16 0.5q-147 0 -256 61.5t-166.5 167t-57.5 235.5zM238 474q0 -14 2 -42q0 -116 64.5 -245t239.5 -139q136 0 222 111 t98 321q0 127 -33 225.5t-101 152.5t-170 54q-148 0 -235 -132.5t-87 -305.5zM241 1072l272 368h96l272 -368h-80l-240 224l-240 -224h-80z" />
<glyph unicode="&#xf5;" d="M48 448q0 158 65 282t186 193t277 69q182 0 290 -93.5t149 -212.5t41 -206q0 -83 -28 -167.5t-88.5 -160.5t-158.5 -122.5t-224 -46.5q-7 0 -13 0.5t-16 0.5q-147 0 -256 61.5t-166.5 167t-57.5 235.5zM238 474q0 -14 2 -42q0 -116 64.5 -245t239.5 -139q136 0 222 111 t98 321q0 127 -33 225.5t-101 152.5t-170 54q-148 0 -235 -132.5t-87 -305.5zM256 1103q11 87 64 140t112 68q13 3 28 3q33 0 70.5 -13.5t88 -39t76.5 -35.5t53 -10q75 0 116 111l64 -16q-9 -37 -35.5 -87t-70.5 -85.5t-102 -35.5q-53 0 -93.5 16t-105.5 48t-89 32 q-44 0 -64 -20t-48 -76h-64z" />
<glyph unicode="&#xf6;" d="M48 448q0 158 65 282t186 193t277 69q182 0 290 -93.5t149 -212.5t41 -206q0 -83 -28 -167.5t-88.5 -160.5t-158.5 -122.5t-224 -46.5q-7 0 -13 0.5t-16 0.5q-147 0 -256 61.5t-166.5 167t-57.5 235.5zM238 474q0 -14 2 -42q0 -116 64.5 -245t239.5 -139q136 0 222 111 t98 321q0 127 -33 225.5t-101 152.5t-170 54q-148 0 -235 -132.5t-87 -305.5zM272 1200q0 55 30 82.5t73 27.5q42 0 73.5 -24.5t31.5 -69.5q0 -51 -30 -80.5t-72 -29.5q-39 0 -69.5 25t-36.5 69zM672 1216q6 45 38 70.5t72 25.5q41 0 69.5 -25.5t28.5 -70.5q0 -51 -31 -79.5 t-73 -28.5t-73 28.5t-31 79.5z" />
<glyph unicode="&#xf7;" horiz-adv-x="1233" />
<glyph unicode="&#xf8;" d="M32 -32l160 160q-45 53 -72 98.5t-41.5 102.5t-14.5 135q8 138 67.5 255.5t175 187t285.5 69.5q89 0 154 -17t134 -63l144 160l64 -64l-144 -144q42 -42 70 -97.5t43 -126.5t15 -160q0 -107 -54.5 -222t-171 -194.5t-286.5 -79.5q-94 0 -182.5 31.5t-137.5 80.5 l-144 -176zM261 446q0 -117 43 -190l496 544q-84 112 -208 112q-77 0 -139 -41t-104.5 -109t-65 -151.5t-22.5 -164.5zM336 176q94 -129 225 -129q82 0 156 50.5t119 133.5t45 181q0 7 -0.5 11t-0.5 9q3 33 3 67q0 92 -17.5 164.5t-33.5 72.5z" />
<glyph unicode="&#xf9;" d="M128 352v624q36 -12 88 -12t88 12v-576q0 -88 25.5 -160.5t78 -116.5t128.5 -44q16 0 24 1q121 11 172.5 93t51.5 195v608q48 -12 94 -12t82 12v-976q-36 12 -82 12t-94 -12v144q-45 -89 -130 -124.5t-206 -35.5q-199 0 -259.5 109.5t-60.5 258.5zM255 1361q0 28 27.5 48 t62.5 20q33 0 54 -21l320 -320h-96l-320 208q-48 30 -48 65z" />
<glyph unicode="&#xfa;" d="M128 352v624q36 -12 88 -12t88 12v-576q0 -88 25.5 -160.5t78 -116.5t128.5 -44q16 0 24 1q121 11 172.5 93t51.5 195v608q48 -12 94 -12t82 12v-976q-36 12 -82 12t-94 -12v144q-45 -89 -130 -124.5t-206 -35.5q-199 0 -259.5 109.5t-60.5 258.5zM271 1072l272 288 q43 50 105 50q32 0 55.5 -15.5t23.5 -40.5q0 -44 -72 -90l-304 -192h-80z" />
<glyph unicode="&#xfb;" d="M128 352v624q36 -12 88 -12t88 12v-576q0 -88 25.5 -160.5t78 -116.5t128.5 -44q16 0 24 1q121 11 172.5 93t51.5 195v608q48 -12 94 -12t82 12v-976q-36 12 -82 12t-94 -12v144q-45 -89 -130 -124.5t-206 -35.5q-199 0 -259.5 109.5t-60.5 258.5zM225 1072l272 368h96 l272 -368h-80l-240 224l-240 -224h-80z" />
<glyph unicode="&#xfc;" d="M128 352v624q36 -12 88 -12t88 12v-576q0 -88 25.5 -160.5t78 -116.5t128.5 -44q16 0 24 1q121 11 172.5 93t51.5 195v608q48 -12 94 -12t82 12v-976q-36 12 -82 12t-94 -12v144q-45 -89 -130 -124.5t-206 -35.5q-199 0 -259.5 109.5t-60.5 258.5zM241 1200q0 55 30 82.5 t73 27.5q42 0 73.5 -24.5t31.5 -69.5q0 -51 -30 -80.5t-72 -29.5q-39 0 -69.5 25t-36.5 69zM641 1216q6 45 38 70.5t72 25.5q41 0 69.5 -25.5t28.5 -70.5q0 -51 -31 -79.5t-73 -28.5t-73 28.5t-31 79.5z" />
<glyph unicode="&#xfd;" horiz-adv-x="1024" />
<glyph unicode="&#xfe;" horiz-adv-x="1137" />
<glyph unicode="&#xff;" horiz-adv-x="1024" d="M32 976q60 -12 116 -12t92 12q11 -39 55 -155t72.5 -187t81.5 -195.5t95 -214.5q44 89 118 259.5t126.5 308t59.5 184.5q36 -12 72 -12t72 12l-672 -1504q-24 12 -60 12t-84 -12l272 544zM208 1232q0 55 30 82.5t73 27.5q42 0 73.5 -24.5t31.5 -69.5q0 -51 -30 -80.5 t-72 -29.5q-39 0 -69.5 25t-36.5 69zM608 1248q6 45 38 70.5t72 25.5q41 0 69.5 -25.5t28.5 -70.5q0 -51 -31 -79.5t-73 -28.5t-73 28.5t-31 79.5z" />
<glyph unicode="&#x152;" horiz-adv-x="2032" d="M30 634q0 18 2 54q12 204 73 349t164 234.5t236 129t295 39.5q77 0 187 -27.5t198.5 -78.5t110.5 -118l-16 192h672q-12 -36 -12 -72t12 -72q-85 21 -200.5 26.5t-295.5 5.5v-496h240q144 0 208 16q-12 -36 -12 -64t12 -64q-80 16 -208 16h-240v-608q115 0 203.5 2 t172.5 8t136 22q-12 -36 -12 -64t12 -64h-704l16 176q-57 -60 -118 -102.5t-131 -71.5t-140.5 -42.5t-139.5 -13.5q-135 0 -265 48t-234 140.5t-163 219.5t-59 280zM242 683q0 -162 58 -306.5t173.5 -234.5t278.5 -94q8 0 13.5 -0.5t11.5 -0.5q136 0 236 58.5t162.5 157 t91.5 220t29 253.5q-6 160 -52.5 280t-119.5 195.5t-157.5 112t-166.5 36.5q-176 0 -302.5 -96t-191 -252.5t-64.5 -328.5z" />
<glyph unicode="&#x153;" horiz-adv-x="1808" d="M64 464q0 132 56 250t172 190t284 72q104 0 176.5 -28t111.5 -59.5t96 -88.5q91 102 179 139t205 37q131 0 223 -51t137 -143.5t45 -218.5q0 -35 -5 -83h-704q-9 -40 -9 -80q0 -140 95.5 -238t233.5 -98q115 0 193.5 32t142.5 96l16 -96q-61 -61 -155.5 -94.5 t-212.5 -33.5q-136 0 -234 49t-150 127q-50 -58 -105 -96.5t-123.5 -59t-155.5 -20.5q-168 0 -273.5 54.5t-157 136t-66.5 158.5t-15 147zM240 464q0 -182 88.5 -299t231.5 -117q80 0 141.5 36.5t100.5 96.5t58.5 134.5t19.5 148.5q0 107 -34 211.5t-102.5 170.5t-167.5 66 q-88 0 -162 -52.5t-120.5 -155t-53.5 -240.5zM1040 560h544q-11 117 -25 180t-66.5 109.5t-164.5 46.5q-125 0 -200 -97t-88 -239z" />
<glyph unicode="&#x2c6;" horiz-adv-x="672" d="M32 1072l272 368h96l272 -368h-80l-240 224l-240 -224h-80z" />
<glyph unicode="&#x2dc;" horiz-adv-x="672" d="M0 1136q11 87 64 140t112 68q13 3 28 3q33 0 70.5 -13.5t88 -39t76.5 -35.5t53 -10q75 0 116 111l64 -16q-9 -37 -35.5 -87t-70.5 -85.5t-102 -35.5q-53 0 -93.5 16t-105.5 48t-89 32q-44 0 -64 -20t-48 -76h-64z" />
<glyph unicode="&#x2000;" horiz-adv-x="968" />
<glyph unicode="&#x2001;" horiz-adv-x="1937" />
<glyph unicode="&#x2002;" horiz-adv-x="968" />
<glyph unicode="&#x2003;" horiz-adv-x="1937" />
<glyph unicode="&#x2004;" horiz-adv-x="645" />
<glyph unicode="&#x2005;" horiz-adv-x="484" />
<glyph unicode="&#x2006;" horiz-adv-x="322" />
<glyph unicode="&#x2007;" horiz-adv-x="322" />
<glyph unicode="&#x2008;" horiz-adv-x="242" />
<glyph unicode="&#x2009;" horiz-adv-x="387" />
<glyph unicode="&#x200a;" horiz-adv-x="107" />
<glyph unicode="&#x2010;" horiz-adv-x="672" d="M80 400v144h512v-144h-512z" />
<glyph unicode="&#x2011;" horiz-adv-x="672" d="M80 400v144h512v-144h-512z" />
<glyph unicode="&#x2012;" horiz-adv-x="672" d="M80 400v144h512v-144h-512z" />
<glyph unicode="&#x2013;" horiz-adv-x="1024" d="M0 400v112h1040v-112h-1040z" />
<glyph unicode="&#x2014;" horiz-adv-x="2032" d="M-16 400v112h2032v-112h-2032z" />
<glyph unicode="&#x2018;" horiz-adv-x="560" d="M127 901q0 44 33 91l256 416l32 -16l-144 -480q-13 -51 -38.5 -76t-57.5 -25q-33 0 -57 26t-24 64z" />
<glyph unicode="&#x201c;" horiz-adv-x="896" d="M127 934q0 44 33 91l256 416l32 -16l-144 -480q-13 -51 -38.5 -76t-57.5 -25q-33 0 -57 26t-24 64zM479 934q0 44 33 91l256 416l32 -16l-144 -480q-13 -51 -38.5 -76t-57.5 -25q-33 0 -57 26t-24 64z" />
<glyph unicode="&#x201d;" horiz-adv-x="896" d="M96 848l160 496q32 94 94 94q34 0 60.5 -29t26.5 -68q0 -33 -21 -61l-272 -448zM449 848l160 496q32 94 94 94q34 0 60.5 -29t26.5 -68q0 -33 -21 -61l-272 -448z" />
<glyph unicode="&#x201e;" horiz-adv-x="896" d="M96 -319l160 496q15 41 40.5 60.5t54.5 19.5q32 0 53.5 -21t21.5 -57q0 -40 -26 -82l-256 -432zM448 -319l160 496q15 41 40.5 60.5t54.5 19.5q32 0 53.5 -21t21.5 -57q0 -40 -26 -82l-256 -432z" />
<glyph unicode="&#x2022;" horiz-adv-x="1232" d="M144 528q0 57 40 88.5t96 31.5q36 0 66.5 -13.5t50 -40t19.5 -66.5q-6 -66 -43.5 -99t-89.5 -33q-55 0 -97 36t-42 96z" />
<glyph unicode="&#x2026;" horiz-adv-x="2032" d="M224 80q3 50 20.5 83t45 48.5t56.5 15.5q33 0 64 -16.5t50.5 -46t19.5 -68.5q-6 -62 -42.5 -95t-85.5 -33q-48 0 -85 30t-43 82zM912 80q3 50 20.5 83t45 48.5t56.5 15.5q33 0 64 -16.5t50.5 -46t19.5 -68.5q-6 -62 -42.5 -95t-85.5 -33q-48 0 -85 30t-43 82zM1600 80 q3 50 20.5 83t45 48.5t56.5 15.5q33 0 64 -16.5t50.5 -46t19.5 -68.5q-6 -62 -42.5 -95t-85.5 -33q-48 0 -85 30t-43 82z" />
<glyph unicode="&#x202f;" horiz-adv-x="387" />
<glyph unicode="&#x2039;" horiz-adv-x="672" d="M160 464l256 368q15 -8 28.5 -15.5t30 -12t37.5 -4.5l-240 -336l224 -320q-64 -32 -80 -64z" />
<glyph unicode="&#x203a;" horiz-adv-x="672" d="M160 144l224 304l-208 336q64 32 80 64l256 -400l-272 -368q-16 32 -80 64z" />
<glyph unicode="&#x205f;" horiz-adv-x="484" />
<glyph unicode="&#x2122;" horiz-adv-x="1936" d="M96 1312v96h640v-96q-128 32 -256 32v-800q-24 12 -56 12t-56 -12v800q-53 0 -114.5 -8t-157.5 -24zM864 544l128 864h32q22 -54 91.5 -193t139 -268.5t105.5 -178.5l336 640h32l96 -864q-24 12 -56 12t-56 -12l-64 624q-60 -112 -96.5 -180.5t-65.5 -125t-68.5 -140.5 t-73.5 -162h-16l-320 624l-48 -640q-24 12 -48 12t-48 -12z" />
<glyph unicode="&#x25fc;" horiz-adv-x="975" d="M0 0v975h975v-975h-975z" />
</font>
</defs>
</svg>
